<mxfile host="www.draw.io" modified="2023-05-07T13:06:10.784Z" agent="Mozilla/5.0 (Windows NT 10.0; Win64; x64) AppleWebKit/537.36 (KHTML, like Gecko) Chrome/112.0.0.0 Safari/537.36 Edg/112.0.1722.68" etag="nDXpvpA6a4lEnXFin9A8" version="21.2.9" type="device" pages="4">
  <diagram id="gZC_7GXF-oESx8OL5Mi4" name="ERD">
    <mxGraphModel dx="1176" dy="691" grid="1" gridSize="10" guides="1" tooltips="1" connect="1" arrows="1" fold="1" page="1" pageScale="1" pageWidth="850" pageHeight="1100" math="0" shadow="0">
      <root>
        <mxCell id="0" />
        <mxCell id="1" parent="0" />
        <mxCell id="LZy5zHJb8noDYSvceaef-4" value="" style="ellipse;whiteSpace=wrap;html=1;" parent="1" vertex="1">
          <mxGeometry x="97.5" y="431.75" width="80" height="35.5" as="geometry" />
        </mxCell>
        <mxCell id="X7a2hoYvPNBB30fepm00-1" value="Editor" style="rounded=0;whiteSpace=wrap;html=1;" parent="1" vertex="1">
          <mxGeometry x="668" y="612" width="70" height="30" as="geometry" />
        </mxCell>
        <mxCell id="X7a2hoYvPNBB30fepm00-2" value="" style="endArrow=none;html=1;rounded=0;" parent="1" target="X7a2hoYvPNBB30fepm00-3" edge="1">
          <mxGeometry width="50" height="50" relative="1" as="geometry">
            <mxPoint x="718" y="612" as="sourcePoint" />
            <mxPoint x="768" y="562" as="targetPoint" />
          </mxGeometry>
        </mxCell>
        <mxCell id="X7a2hoYvPNBB30fepm00-3" value="Full Name" style="ellipse;whiteSpace=wrap;html=1;" parent="1" vertex="1">
          <mxGeometry x="738" y="572" width="80" height="30" as="geometry" />
        </mxCell>
        <mxCell id="X7a2hoYvPNBB30fepm00-4" value="" style="endArrow=none;html=1;rounded=0;" parent="1" source="X7a2hoYvPNBB30fepm00-1" target="X7a2hoYvPNBB30fepm00-5" edge="1">
          <mxGeometry width="50" height="50" relative="1" as="geometry">
            <mxPoint x="663.53" y="612" as="sourcePoint" />
            <mxPoint x="668" y="573.3199999999999" as="targetPoint" />
          </mxGeometry>
        </mxCell>
        <mxCell id="X7a2hoYvPNBB30fepm00-6" value="" style="endArrow=none;html=1;rounded=0;exitX=0.5;exitY=0;exitDx=0;exitDy=0;" parent="1" source="X7a2hoYvPNBB30fepm00-1" target="X7a2hoYvPNBB30fepm00-7" edge="1">
          <mxGeometry width="50" height="50" relative="1" as="geometry">
            <mxPoint x="638" y="622" as="sourcePoint" />
            <mxPoint x="688" y="572" as="targetPoint" />
          </mxGeometry>
        </mxCell>
        <mxCell id="X7a2hoYvPNBB30fepm00-7" value="Years of Expertise" style="ellipse;whiteSpace=wrap;html=1;" parent="1" vertex="1">
          <mxGeometry x="673" y="532" width="110" height="30" as="geometry" />
        </mxCell>
        <mxCell id="X7a2hoYvPNBB30fepm00-8" value="Authors" style="rounded=0;whiteSpace=wrap;html=1;" parent="1" vertex="1">
          <mxGeometry x="123" y="352" width="70" height="30" as="geometry" />
        </mxCell>
        <mxCell id="X7a2hoYvPNBB30fepm00-9" value="" style="endArrow=none;html=1;rounded=0;" parent="1" target="X7a2hoYvPNBB30fepm00-10" edge="1">
          <mxGeometry width="50" height="50" relative="1" as="geometry">
            <mxPoint x="173" y="352" as="sourcePoint" />
            <mxPoint x="223" y="302" as="targetPoint" />
          </mxGeometry>
        </mxCell>
        <mxCell id="X7a2hoYvPNBB30fepm00-10" value="E-mail" style="ellipse;whiteSpace=wrap;html=1;" parent="1" vertex="1">
          <mxGeometry x="153" y="282" width="80" height="30" as="geometry" />
        </mxCell>
        <mxCell id="X7a2hoYvPNBB30fepm00-11" value="" style="endArrow=none;html=1;rounded=0;exitX=0.096;exitY=0.01;exitDx=0;exitDy=0;exitPerimeter=0;" parent="1" source="X7a2hoYvPNBB30fepm00-8" target="X7a2hoYvPNBB30fepm00-12" edge="1">
          <mxGeometry width="50" height="50" relative="1" as="geometry">
            <mxPoint x="118.52999999999997" y="352" as="sourcePoint" />
            <mxPoint x="123" y="313.32" as="targetPoint" />
          </mxGeometry>
        </mxCell>
        <mxCell id="X7a2hoYvPNBB30fepm00-12" value="Name" style="ellipse;whiteSpace=wrap;html=1;" parent="1" vertex="1">
          <mxGeometry x="73" y="302" width="60" height="30" as="geometry" />
        </mxCell>
        <mxCell id="X7a2hoYvPNBB30fepm00-13" value="" style="endArrow=none;html=1;rounded=0;exitX=0.5;exitY=0;exitDx=0;exitDy=0;" parent="1" source="X7a2hoYvPNBB30fepm00-8" target="X7a2hoYvPNBB30fepm00-14" edge="1">
          <mxGeometry width="50" height="50" relative="1" as="geometry">
            <mxPoint x="93" y="362" as="sourcePoint" />
            <mxPoint x="143" y="312" as="targetPoint" />
          </mxGeometry>
        </mxCell>
        <mxCell id="X7a2hoYvPNBB30fepm00-14" value="Mailing Address" style="ellipse;whiteSpace=wrap;html=1;" parent="1" vertex="1">
          <mxGeometry x="73" y="252" width="100" height="30" as="geometry" />
        </mxCell>
        <mxCell id="X7a2hoYvPNBB30fepm00-15" value="" style="endArrow=none;html=1;rounded=0;exitX=0;exitY=0.5;exitDx=0;exitDy=0;" parent="1" source="X7a2hoYvPNBB30fepm00-8" target="X7a2hoYvPNBB30fepm00-16" edge="1">
          <mxGeometry width="50" height="50" relative="1" as="geometry">
            <mxPoint x="43" y="417" as="sourcePoint" />
            <mxPoint x="93" y="367" as="targetPoint" />
          </mxGeometry>
        </mxCell>
        <mxCell id="X7a2hoYvPNBB30fepm00-17" value="Reviewers" style="rounded=0;whiteSpace=wrap;html=1;" parent="1" vertex="1">
          <mxGeometry x="140" y="534.5" width="70" height="47.5" as="geometry" />
        </mxCell>
        <mxCell id="X7a2hoYvPNBB30fepm00-18" value="" style="endArrow=none;html=1;rounded=0;" parent="1" edge="1">
          <mxGeometry width="50" height="50" relative="1" as="geometry">
            <mxPoint x="190" y="534.5" as="sourcePoint" />
            <mxPoint x="195.59549281156683" y="494.4639850519743" as="targetPoint" />
          </mxGeometry>
        </mxCell>
        <mxCell id="X7a2hoYvPNBB30fepm00-19" value="E-mail" style="ellipse;whiteSpace=wrap;html=1;" parent="1" vertex="1">
          <mxGeometry x="170" y="474.5" width="55" height="30" as="geometry" />
        </mxCell>
        <mxCell id="X7a2hoYvPNBB30fepm00-20" value="" style="endArrow=none;html=1;rounded=0;exitX=0.096;exitY=0.01;exitDx=0;exitDy=0;exitPerimeter=0;" parent="1" source="X7a2hoYvPNBB30fepm00-17" target="X7a2hoYvPNBB30fepm00-21" edge="1">
          <mxGeometry width="50" height="50" relative="1" as="geometry">
            <mxPoint x="135.52999999999997" y="534.5" as="sourcePoint" />
            <mxPoint x="140" y="495.81999999999994" as="targetPoint" />
          </mxGeometry>
        </mxCell>
        <mxCell id="X7a2hoYvPNBB30fepm00-21" value="Name" style="ellipse;whiteSpace=wrap;html=1;" parent="1" vertex="1">
          <mxGeometry x="90" y="484.5" width="60" height="30" as="geometry" />
        </mxCell>
        <mxCell id="X7a2hoYvPNBB30fepm00-22" value="" style="endArrow=none;html=1;rounded=0;exitX=0.5;exitY=0;exitDx=0;exitDy=0;" parent="1" source="X7a2hoYvPNBB30fepm00-17" target="X7a2hoYvPNBB30fepm00-23" edge="1">
          <mxGeometry width="50" height="50" relative="1" as="geometry">
            <mxPoint x="110" y="544.5" as="sourcePoint" />
            <mxPoint x="160" y="494.5" as="targetPoint" />
          </mxGeometry>
        </mxCell>
        <mxCell id="X7a2hoYvPNBB30fepm00-23" value="Affiliation" style="ellipse;whiteSpace=wrap;html=1;" parent="1" vertex="1">
          <mxGeometry x="105" y="434.5" width="65" height="30" as="geometry" />
        </mxCell>
        <mxCell id="X7a2hoYvPNBB30fepm00-24" value="" style="endArrow=none;html=1;rounded=0;exitX=0;exitY=0.5;exitDx=0;exitDy=0;" parent="1" source="X7a2hoYvPNBB30fepm00-17" target="X7a2hoYvPNBB30fepm00-25" edge="1">
          <mxGeometry width="50" height="50" relative="1" as="geometry">
            <mxPoint x="60" y="599.5" as="sourcePoint" />
            <mxPoint x="110" y="549.5" as="targetPoint" />
          </mxGeometry>
        </mxCell>
        <mxCell id="X7a2hoYvPNBB30fepm00-25" value="Rev No" style="ellipse;whiteSpace=wrap;html=1;" parent="1" vertex="1">
          <mxGeometry x="50" y="529.5" width="80" height="30" as="geometry" />
        </mxCell>
        <mxCell id="X7a2hoYvPNBB30fepm00-26" value="" style="endArrow=none;html=1;rounded=0;exitX=0.124;exitY=0.989;exitDx=0;exitDy=0;exitPerimeter=0;entryX=0.5;entryY=0;entryDx=0;entryDy=0;" parent="1" source="X7a2hoYvPNBB30fepm00-17" target="X7a2hoYvPNBB30fepm00-206" edge="1">
          <mxGeometry width="50" height="50" relative="1" as="geometry">
            <mxPoint x="225" y="534.5" as="sourcePoint" />
            <mxPoint x="120" y="670" as="targetPoint" />
          </mxGeometry>
        </mxCell>
        <mxCell id="X7a2hoYvPNBB30fepm00-32" value="Issue" style="rounded=0;whiteSpace=wrap;html=1;" parent="1" vertex="1">
          <mxGeometry x="570" y="100" width="70" height="30" as="geometry" />
        </mxCell>
        <mxCell id="X7a2hoYvPNBB30fepm00-33" value="" style="endArrow=none;html=1;rounded=0;exitX=0.138;exitY=1.041;exitDx=0;exitDy=0;exitPerimeter=0;" parent="1" source="X7a2hoYvPNBB30fepm00-32" target="X7a2hoYvPNBB30fepm00-34" edge="1">
          <mxGeometry width="50" height="50" relative="1" as="geometry">
            <mxPoint x="620" y="100" as="sourcePoint" />
            <mxPoint x="670" y="50" as="targetPoint" />
          </mxGeometry>
        </mxCell>
        <mxCell id="X7a2hoYvPNBB30fepm00-34" value="Pub_year" style="ellipse;whiteSpace=wrap;html=1;" parent="1" vertex="1">
          <mxGeometry x="497.5" y="140" width="80" height="30" as="geometry" />
        </mxCell>
        <mxCell id="X7a2hoYvPNBB30fepm00-35" value="" style="endArrow=none;html=1;rounded=0;exitX=0.096;exitY=0.01;exitDx=0;exitDy=0;exitPerimeter=0;" parent="1" source="X7a2hoYvPNBB30fepm00-32" target="X7a2hoYvPNBB30fepm00-36" edge="1">
          <mxGeometry width="50" height="50" relative="1" as="geometry">
            <mxPoint x="565.53" y="100" as="sourcePoint" />
            <mxPoint x="570" y="61.319999999999936" as="targetPoint" />
          </mxGeometry>
        </mxCell>
        <mxCell id="X7a2hoYvPNBB30fepm00-36" value="Volume" style="ellipse;whiteSpace=wrap;html=1;" parent="1" vertex="1">
          <mxGeometry x="520" y="50" width="60" height="30" as="geometry" />
        </mxCell>
        <mxCell id="X7a2hoYvPNBB30fepm00-37" value="" style="endArrow=none;html=1;rounded=0;exitX=0.75;exitY=0;exitDx=0;exitDy=0;" parent="1" source="X7a2hoYvPNBB30fepm00-32" target="X7a2hoYvPNBB30fepm00-38" edge="1">
          <mxGeometry width="50" height="50" relative="1" as="geometry">
            <mxPoint x="540" y="110" as="sourcePoint" />
            <mxPoint x="590" y="60" as="targetPoint" />
          </mxGeometry>
        </mxCell>
        <mxCell id="X7a2hoYvPNBB30fepm00-38" value="Publication period" style="ellipse;whiteSpace=wrap;html=1;" parent="1" vertex="1">
          <mxGeometry x="590" y="30" width="110" height="30" as="geometry" />
        </mxCell>
        <mxCell id="X7a2hoYvPNBB30fepm00-39" value="" style="endArrow=none;html=1;rounded=0;exitX=0;exitY=0.5;exitDx=0;exitDy=0;" parent="1" source="X7a2hoYvPNBB30fepm00-32" target="X7a2hoYvPNBB30fepm00-40" edge="1">
          <mxGeometry width="50" height="50" relative="1" as="geometry">
            <mxPoint x="490" y="165" as="sourcePoint" />
            <mxPoint x="540" y="115" as="targetPoint" />
          </mxGeometry>
        </mxCell>
        <mxCell id="X7a2hoYvPNBB30fepm00-40" value="Number" style="ellipse;whiteSpace=wrap;html=1;" parent="1" vertex="1">
          <mxGeometry x="480" y="95" width="80" height="30" as="geometry" />
        </mxCell>
        <mxCell id="X7a2hoYvPNBB30fepm00-41" value="Manuscript" style="rounded=0;whiteSpace=wrap;html=1;" parent="1" vertex="1">
          <mxGeometry x="578" y="312" width="70" height="30" as="geometry" />
        </mxCell>
        <mxCell id="X7a2hoYvPNBB30fepm00-42" value="" style="endArrow=none;html=1;rounded=0;exitX=0.997;exitY=0.651;exitDx=0;exitDy=0;exitPerimeter=0;" parent="1" source="X7a2hoYvPNBB30fepm00-41" target="X7a2hoYvPNBB30fepm00-43" edge="1">
          <mxGeometry width="50" height="50" relative="1" as="geometry">
            <mxPoint x="586" y="337" as="sourcePoint" />
            <mxPoint x="636" y="287" as="targetPoint" />
          </mxGeometry>
        </mxCell>
        <mxCell id="X7a2hoYvPNBB30fepm00-43" value="Title" style="ellipse;whiteSpace=wrap;html=1;" parent="1" vertex="1">
          <mxGeometry x="688" y="317" width="80" height="30" as="geometry" />
        </mxCell>
        <mxCell id="X7a2hoYvPNBB30fepm00-50" value="" style="endArrow=none;html=1;rounded=0;exitX=1;exitY=0.5;exitDx=0;exitDy=0;" parent="1" source="X7a2hoYvPNBB30fepm00-8" target="X7a2hoYvPNBB30fepm00-51" edge="1">
          <mxGeometry width="50" height="50" relative="1" as="geometry">
            <mxPoint x="278" y="402" as="sourcePoint" />
            <mxPoint x="328" y="352" as="targetPoint" />
          </mxGeometry>
        </mxCell>
        <mxCell id="X7a2hoYvPNBB30fepm00-51" value="Write" style="rhombus;whiteSpace=wrap;html=1;" parent="1" vertex="1">
          <mxGeometry x="333" y="332" width="80" height="80" as="geometry" />
        </mxCell>
        <mxCell id="X7a2hoYvPNBB30fepm00-54" value="" style="endArrow=none;html=1;rounded=0;" parent="1" edge="1">
          <mxGeometry width="50" height="50" relative="1" as="geometry">
            <mxPoint x="168" y="304" as="sourcePoint" />
            <mxPoint x="218" y="304" as="targetPoint" />
          </mxGeometry>
        </mxCell>
        <mxCell id="X7a2hoYvPNBB30fepm00-56" value="" style="endArrow=none;html=1;rounded=0;" parent="1" edge="1">
          <mxGeometry width="50" height="50" relative="1" as="geometry">
            <mxPoint x="65" y="551.13" as="sourcePoint" />
            <mxPoint x="115" y="551.13" as="targetPoint" />
          </mxGeometry>
        </mxCell>
        <mxCell id="X7a2hoYvPNBB30fepm00-57" value="" style="endArrow=none;html=1;rounded=0;" parent="1" edge="1">
          <mxGeometry width="50" height="50" relative="1" as="geometry">
            <mxPoint x="494" y="115.63000000000011" as="sourcePoint" />
            <mxPoint x="544" y="115.63000000000011" as="targetPoint" />
          </mxGeometry>
        </mxCell>
        <mxCell id="X7a2hoYvPNBB30fepm00-58" value="" style="endArrow=none;html=1;rounded=0;entryX=0;entryY=0.5;entryDx=0;entryDy=0;exitX=1;exitY=0.5;exitDx=0;exitDy=0;" parent="1" source="X7a2hoYvPNBB30fepm00-51" target="X7a2hoYvPNBB30fepm00-41" edge="1">
          <mxGeometry width="50" height="50" relative="1" as="geometry">
            <mxPoint x="438" y="382" as="sourcePoint" />
            <mxPoint x="606" y="394" as="targetPoint" />
          </mxGeometry>
        </mxCell>
        <mxCell id="X7a2hoYvPNBB30fepm00-59" value="" style="endArrow=none;html=1;rounded=0;exitX=0.994;exitY=0.596;exitDx=0;exitDy=0;exitPerimeter=0;entryX=0.029;entryY=0.537;entryDx=0;entryDy=0;entryPerimeter=0;" parent="1" source="X7a2hoYvPNBB30fepm00-8" target="X7a2hoYvPNBB30fepm00-51" edge="1">
          <mxGeometry width="50" height="50" relative="1" as="geometry">
            <mxPoint x="193" y="370" as="sourcePoint" />
            <mxPoint x="334" y="374" as="targetPoint" />
          </mxGeometry>
        </mxCell>
        <mxCell id="X7a2hoYvPNBB30fepm00-60" value="" style="endArrow=none;html=1;rounded=0;exitX=0.952;exitY=0.547;exitDx=0;exitDy=0;exitPerimeter=0;" parent="1" source="X7a2hoYvPNBB30fepm00-51" target="X7a2hoYvPNBB30fepm00-41" edge="1">
          <mxGeometry width="50" height="50" relative="1" as="geometry">
            <mxPoint x="413" y="377" as="sourcePoint" />
            <mxPoint x="578" y="357" as="targetPoint" />
          </mxGeometry>
        </mxCell>
        <mxCell id="X7a2hoYvPNBB30fepm00-61" value="m" style="text;html=1;strokeColor=none;fillColor=none;align=center;verticalAlign=middle;whiteSpace=wrap;rounded=0;" parent="1" vertex="1">
          <mxGeometry x="258" y="347" width="60" height="30" as="geometry" />
        </mxCell>
        <mxCell id="X7a2hoYvPNBB30fepm00-62" value="n" style="text;html=1;strokeColor=none;fillColor=none;align=center;verticalAlign=middle;whiteSpace=wrap;rounded=0;" parent="1" vertex="1">
          <mxGeometry x="408" y="343" width="60" height="30" as="geometry" />
        </mxCell>
        <mxCell id="X7a2hoYvPNBB30fepm00-63" value="" style="group" parent="1" vertex="1" connectable="0">
          <mxGeometry x="738" y="672" width="80" height="30" as="geometry" />
        </mxCell>
        <mxCell id="X7a2hoYvPNBB30fepm00-5" value="Mobile No" style="ellipse;whiteSpace=wrap;html=1;" parent="X7a2hoYvPNBB30fepm00-63" vertex="1">
          <mxGeometry width="80" height="30" as="geometry" />
        </mxCell>
        <mxCell id="X7a2hoYvPNBB30fepm00-55" value="" style="endArrow=none;html=1;rounded=0;" parent="X7a2hoYvPNBB30fepm00-63" edge="1">
          <mxGeometry width="50" height="50" relative="1" as="geometry">
            <mxPoint x="15" y="21" as="sourcePoint" />
            <mxPoint x="65" y="21" as="targetPoint" />
          </mxGeometry>
        </mxCell>
        <mxCell id="X7a2hoYvPNBB30fepm00-66" value="" style="endArrow=none;html=1;rounded=0;entryX=0.5;entryY=1;entryDx=0;entryDy=0;exitX=0.5;exitY=0;exitDx=0;exitDy=0;" parent="1" source="X7a2hoYvPNBB30fepm00-67" target="X7a2hoYvPNBB30fepm00-41" edge="1">
          <mxGeometry width="50" height="50" relative="1" as="geometry">
            <mxPoint x="568" y="452" as="sourcePoint" />
            <mxPoint x="548" y="462" as="targetPoint" />
          </mxGeometry>
        </mxCell>
        <mxCell id="X7a2hoYvPNBB30fepm00-67" value="Received" style="rhombus;whiteSpace=wrap;html=1;" parent="1" vertex="1">
          <mxGeometry x="578" y="452" width="80" height="80" as="geometry" />
        </mxCell>
        <mxCell id="X7a2hoYvPNBB30fepm00-75" value="" style="endArrow=none;html=1;rounded=0;entryX=0.5;entryY=1;entryDx=0;entryDy=0;exitX=-0.007;exitY=0.071;exitDx=0;exitDy=0;exitPerimeter=0;" parent="1" source="X7a2hoYvPNBB30fepm00-1" target="X7a2hoYvPNBB30fepm00-67" edge="1">
          <mxGeometry width="50" height="50" relative="1" as="geometry">
            <mxPoint x="578" y="612" as="sourcePoint" />
            <mxPoint x="603" y="537" as="targetPoint" />
          </mxGeometry>
        </mxCell>
        <mxCell id="X7a2hoYvPNBB30fepm00-77" value="" style="endArrow=none;html=1;rounded=0;entryX=0.117;entryY=0.989;entryDx=0;entryDy=0;entryPerimeter=0;exitX=1;exitY=0.5;exitDx=0;exitDy=0;" parent="1" source="X7a2hoYvPNBB30fepm00-78" target="X7a2hoYvPNBB30fepm00-41" edge="1">
          <mxGeometry width="50" height="50" relative="1" as="geometry">
            <mxPoint x="488" y="467" as="sourcePoint" />
            <mxPoint x="538" y="417" as="targetPoint" />
          </mxGeometry>
        </mxCell>
        <mxCell id="X7a2hoYvPNBB30fepm00-78" value="Review" style="rhombus;whiteSpace=wrap;html=1;" parent="1" vertex="1">
          <mxGeometry x="378" y="464.5" width="80" height="80" as="geometry" />
        </mxCell>
        <mxCell id="X7a2hoYvPNBB30fepm00-79" value="" style="endArrow=none;html=1;rounded=0;entryX=0;entryY=0.5;entryDx=0;entryDy=0;exitX=1;exitY=0;exitDx=0;exitDy=0;" parent="1" source="X7a2hoYvPNBB30fepm00-17" target="X7a2hoYvPNBB30fepm00-78" edge="1">
          <mxGeometry width="50" height="50" relative="1" as="geometry">
            <mxPoint x="290" y="644.5" as="sourcePoint" />
            <mxPoint x="398" y="506.5" as="targetPoint" />
          </mxGeometry>
        </mxCell>
        <mxCell id="X7a2hoYvPNBB30fepm00-87" value="m" style="text;html=1;strokeColor=none;fillColor=none;align=center;verticalAlign=middle;whiteSpace=wrap;rounded=0;" parent="1" vertex="1">
          <mxGeometry x="318" y="485.5" width="60" height="30" as="geometry" />
        </mxCell>
        <mxCell id="X7a2hoYvPNBB30fepm00-88" value="n" style="text;html=1;strokeColor=none;fillColor=none;align=center;verticalAlign=middle;whiteSpace=wrap;rounded=0;" parent="1" vertex="1">
          <mxGeometry x="428.75" y="444.5" width="60" height="30" as="geometry" />
        </mxCell>
        <mxCell id="X7a2hoYvPNBB30fepm00-91" value="" style="endArrow=none;html=1;rounded=0;entryX=0;entryY=1;entryDx=0;entryDy=0;exitX=0.5;exitY=0;exitDx=0;exitDy=0;" parent="1" source="X7a2hoYvPNBB30fepm00-234" target="X7a2hoYvPNBB30fepm00-1" edge="1">
          <mxGeometry width="50" height="50" relative="1" as="geometry">
            <mxPoint x="620" y="720" as="sourcePoint" />
            <mxPoint x="588" y="629.5" as="targetPoint" />
          </mxGeometry>
        </mxCell>
        <mxCell id="X7a2hoYvPNBB30fepm00-93" value="m" style="text;html=1;strokeColor=none;fillColor=none;align=center;verticalAlign=middle;whiteSpace=wrap;rounded=0;" parent="1" vertex="1">
          <mxGeometry x="87" y="602" width="60" height="30" as="geometry" />
        </mxCell>
        <mxCell id="X7a2hoYvPNBB30fepm00-94" value="1" style="text;html=1;strokeColor=none;fillColor=none;align=center;verticalAlign=middle;whiteSpace=wrap;rounded=0;" parent="1" vertex="1">
          <mxGeometry x="590" y="660" width="60" height="30" as="geometry" />
        </mxCell>
        <mxCell id="X7a2hoYvPNBB30fepm00-113" value="m" style="text;html=1;strokeColor=none;fillColor=none;align=center;verticalAlign=middle;whiteSpace=wrap;rounded=0;" parent="1" vertex="1">
          <mxGeometry x="536" y="417" width="60" height="30" as="geometry" />
        </mxCell>
        <mxCell id="X7a2hoYvPNBB30fepm00-114" value="1" style="text;html=1;strokeColor=none;fillColor=none;align=center;verticalAlign=middle;whiteSpace=wrap;rounded=0;" parent="1" vertex="1">
          <mxGeometry x="611" y="532" width="60" height="30" as="geometry" />
        </mxCell>
        <mxCell id="X7a2hoYvPNBB30fepm00-117" value="Publish" style="rhombus;whiteSpace=wrap;html=1;" parent="1" vertex="1">
          <mxGeometry x="591" y="192" width="80" height="80" as="geometry" />
        </mxCell>
        <mxCell id="X7a2hoYvPNBB30fepm00-118" value="" style="endArrow=none;html=1;rounded=0;exitX=0.432;exitY=0.987;exitDx=0;exitDy=0;entryX=0.475;entryY=0.039;entryDx=0;entryDy=0;entryPerimeter=0;exitPerimeter=0;" parent="1" source="X7a2hoYvPNBB30fepm00-32" target="X7a2hoYvPNBB30fepm00-117" edge="1">
          <mxGeometry width="50" height="50" relative="1" as="geometry">
            <mxPoint x="405.5" y="232" as="sourcePoint" />
            <mxPoint x="455.5" y="182" as="targetPoint" />
          </mxGeometry>
        </mxCell>
        <mxCell id="X7a2hoYvPNBB30fepm00-123" value="" style="endArrow=none;html=1;rounded=0;exitX=0.5;exitY=1;exitDx=0;exitDy=0;entryX=0.5;entryY=0;entryDx=0;entryDy=0;" parent="1" source="X7a2hoYvPNBB30fepm00-32" target="X7a2hoYvPNBB30fepm00-117" edge="1">
          <mxGeometry width="50" height="50" relative="1" as="geometry">
            <mxPoint x="405" y="133" as="sourcePoint" />
            <mxPoint x="492" y="220" as="targetPoint" />
          </mxGeometry>
        </mxCell>
        <mxCell id="X7a2hoYvPNBB30fepm00-124" value="" style="endArrow=none;html=1;rounded=0;entryX=0.5;entryY=0;entryDx=0;entryDy=0;exitX=0.376;exitY=0.884;exitDx=0;exitDy=0;exitPerimeter=0;" parent="1" source="X7a2hoYvPNBB30fepm00-117" target="X7a2hoYvPNBB30fepm00-41" edge="1">
          <mxGeometry width="50" height="50" relative="1" as="geometry">
            <mxPoint x="589" y="272" as="sourcePoint" />
            <mxPoint x="588" y="322" as="targetPoint" />
          </mxGeometry>
        </mxCell>
        <mxCell id="X7a2hoYvPNBB30fepm00-125" value="1" style="text;html=1;strokeColor=none;fillColor=none;align=center;verticalAlign=middle;whiteSpace=wrap;rounded=0;" parent="1" vertex="1">
          <mxGeometry x="608" y="150" width="60" height="30" as="geometry" />
        </mxCell>
        <mxCell id="X7a2hoYvPNBB30fepm00-126" value="m" style="text;html=1;strokeColor=none;fillColor=none;align=center;verticalAlign=middle;whiteSpace=wrap;rounded=0;" parent="1" vertex="1">
          <mxGeometry x="640" y="242" width="45" height="28" as="geometry" />
        </mxCell>
        <mxCell id="X7a2hoYvPNBB30fepm00-147" value="Appropriateness rating" style="ellipse;whiteSpace=wrap;html=1;" parent="1" vertex="1">
          <mxGeometry x="240.5" y="894" width="120" height="40" as="geometry" />
        </mxCell>
        <mxCell id="X7a2hoYvPNBB30fepm00-148" value="Date" style="ellipse;whiteSpace=wrap;html=1;" parent="1" vertex="1">
          <mxGeometry x="556" y="879" width="74" height="35" as="geometry" />
        </mxCell>
        <mxCell id="X7a2hoYvPNBB30fepm00-150" value="" style="endArrow=none;html=1;rounded=0;exitX=0.002;exitY=0.926;exitDx=0;exitDy=0;exitPerimeter=0;" parent="1" source="X7a2hoYvPNBB30fepm00-162" target="X7a2hoYvPNBB30fepm00-147" edge="1">
          <mxGeometry width="50" height="50" relative="1" as="geometry">
            <mxPoint x="413.70000000000005" y="907.1199999999999" as="sourcePoint" />
            <mxPoint x="352.5" y="926" as="targetPoint" />
          </mxGeometry>
        </mxCell>
        <mxCell id="X7a2hoYvPNBB30fepm00-151" value="" style="endArrow=none;html=1;rounded=0;exitX=0.932;exitY=0.966;exitDx=0;exitDy=0;exitPerimeter=0;" parent="1" source="X7a2hoYvPNBB30fepm00-162" target="X7a2hoYvPNBB30fepm00-152" edge="1">
          <mxGeometry width="50" height="50" relative="1" as="geometry">
            <mxPoint x="467.9690283240262" y="904.5309716759739" as="sourcePoint" />
            <mxPoint x="413.5" y="909" as="targetPoint" />
          </mxGeometry>
        </mxCell>
        <mxCell id="X7a2hoYvPNBB30fepm00-152" value="ID" style="ellipse;whiteSpace=wrap;html=1;" parent="1" vertex="1">
          <mxGeometry x="485.5" y="894" width="44.5" height="30" as="geometry" />
        </mxCell>
        <mxCell id="X7a2hoYvPNBB30fepm00-153" value="" style="endArrow=none;html=1;rounded=0;exitX=0.885;exitY=1;exitDx=0;exitDy=0;exitPerimeter=0;entryX=0.094;entryY=0.169;entryDx=0;entryDy=0;entryPerimeter=0;" parent="1" source="X7a2hoYvPNBB30fepm00-162" target="X7a2hoYvPNBB30fepm00-154" edge="1">
          <mxGeometry width="50" height="50" relative="1" as="geometry">
            <mxPoint x="451.30000000000007" y="920.96" as="sourcePoint" />
            <mxPoint x="468.5" y="969" as="targetPoint" />
          </mxGeometry>
        </mxCell>
        <mxCell id="X7a2hoYvPNBB30fepm00-155" value="" style="endArrow=none;html=1;rounded=0;entryX=1;entryY=1;entryDx=0;entryDy=0;exitX=0;exitY=0.5;exitDx=0;exitDy=0;" parent="1" source="X7a2hoYvPNBB30fepm00-148" target="X7a2hoYvPNBB30fepm00-162" edge="1">
          <mxGeometry width="50" height="50" relative="1" as="geometry">
            <mxPoint x="237.5" y="784" as="sourcePoint" />
            <mxPoint x="290.5" y="855" as="targetPoint" />
          </mxGeometry>
        </mxCell>
        <mxCell id="X7a2hoYvPNBB30fepm00-156" value="Contribution to field rating" style="ellipse;whiteSpace=wrap;html=1;" parent="1" vertex="1">
          <mxGeometry x="407.5" y="964" width="102.5" height="40" as="geometry" />
        </mxCell>
        <mxCell id="X7a2hoYvPNBB30fepm00-157" value="" style="endArrow=none;html=1;rounded=0;exitX=0.6;exitY=1.007;exitDx=0;exitDy=0;exitPerimeter=0;" parent="1" source="X7a2hoYvPNBB30fepm00-162" target="X7a2hoYvPNBB30fepm00-156" edge="1">
          <mxGeometry width="50" height="50" relative="1" as="geometry">
            <mxPoint x="441.5" y="930" as="sourcePoint" />
            <mxPoint x="466" y="1219.4" as="targetPoint" />
          </mxGeometry>
        </mxCell>
        <mxCell id="X7a2hoYvPNBB30fepm00-158" value="" style="endArrow=none;html=1;rounded=0;exitX=0.5;exitY=1;exitDx=0;exitDy=0;" parent="1" source="X7a2hoYvPNBB30fepm00-162" target="X7a2hoYvPNBB30fepm00-159" edge="1">
          <mxGeometry width="50" height="50" relative="1" as="geometry">
            <mxPoint x="424.5" y="919" as="sourcePoint" />
            <mxPoint x="378.5" y="1107" as="targetPoint" />
          </mxGeometry>
        </mxCell>
        <mxCell id="X7a2hoYvPNBB30fepm00-159" value="Methodology rating" style="ellipse;whiteSpace=wrap;html=1;" parent="1" vertex="1">
          <mxGeometry x="343" y="1004" width="95" height="45" as="geometry" />
        </mxCell>
        <mxCell id="X7a2hoYvPNBB30fepm00-160" value="" style="endArrow=none;html=1;rounded=0;exitX=0.25;exitY=1;exitDx=0;exitDy=0;" parent="1" source="X7a2hoYvPNBB30fepm00-162" target="X7a2hoYvPNBB30fepm00-161" edge="1">
          <mxGeometry width="50" height="50" relative="1" as="geometry">
            <mxPoint x="418.5" y="914" as="sourcePoint" />
            <mxPoint x="348.5" y="1062" as="targetPoint" />
          </mxGeometry>
        </mxCell>
        <mxCell id="X7a2hoYvPNBB30fepm00-161" value="Clarity rating" style="ellipse;whiteSpace=wrap;html=1;" parent="1" vertex="1">
          <mxGeometry x="320.5" y="939" width="80" height="30" as="geometry" />
        </mxCell>
        <mxCell id="X7a2hoYvPNBB30fepm00-162" value="Feedback" style="rounded=0;whiteSpace=wrap;html=1;" parent="1" vertex="1">
          <mxGeometry x="380.5" y="834" width="87" height="30" as="geometry" />
        </mxCell>
        <mxCell id="X7a2hoYvPNBB30fepm00-184" value="" style="endArrow=none;html=1;rounded=0;exitX=0.997;exitY=0.139;exitDx=0;exitDy=0;entryX=0.362;entryY=0.988;entryDx=0;entryDy=0;entryPerimeter=0;exitPerimeter=0;" parent="1" source="X7a2hoYvPNBB30fepm00-41" target="X7a2hoYvPNBB30fepm00-185" edge="1">
          <mxGeometry width="50" height="50" relative="1" as="geometry">
            <mxPoint x="588" y="307" as="sourcePoint" />
            <mxPoint x="635.0833333333333" y="247" as="targetPoint" />
          </mxGeometry>
        </mxCell>
        <mxCell id="X7a2hoYvPNBB30fepm00-185" value="Date" style="ellipse;whiteSpace=wrap;html=1;" parent="1" vertex="1">
          <mxGeometry x="678" y="262" width="70" height="25" as="geometry" />
        </mxCell>
        <mxCell id="X7a2hoYvPNBB30fepm00-186" value="" style="endArrow=none;html=1;rounded=0;exitX=0.884;exitY=1.021;exitDx=0;exitDy=0;exitPerimeter=0;" parent="1" source="X7a2hoYvPNBB30fepm00-41" target="LZy5zHJb8noDYSvceaef-1" edge="1">
          <mxGeometry width="50" height="50" relative="1" as="geometry">
            <mxPoint x="658" y="346" as="sourcePoint" />
            <mxPoint x="678" y="360" as="targetPoint" />
          </mxGeometry>
        </mxCell>
        <mxCell id="X7a2hoYvPNBB30fepm00-188" value="" style="endArrow=none;html=1;rounded=0;exitX=0.298;exitY=0.032;exitDx=0;exitDy=0;entryX=0.71;entryY=0.986;entryDx=0;entryDy=0;exitPerimeter=0;entryPerimeter=0;" parent="1" source="X7a2hoYvPNBB30fepm00-189" target="X7a2hoYvPNBB30fepm00-41" edge="1">
          <mxGeometry width="50" height="50" relative="1" as="geometry">
            <mxPoint x="683.5" y="397.25" as="sourcePoint" />
            <mxPoint x="734.5" y="339.25" as="targetPoint" />
          </mxGeometry>
        </mxCell>
        <mxCell id="X7a2hoYvPNBB30fepm00-189" value="Manuscript_No" style="ellipse;whiteSpace=wrap;html=1;" parent="1" vertex="1">
          <mxGeometry x="630" y="389.75" width="102" height="33" as="geometry" />
        </mxCell>
        <mxCell id="X7a2hoYvPNBB30fepm00-190" value="" style="endArrow=none;html=1;rounded=0;entryX=0.5;entryY=1;entryDx=0;entryDy=0;" parent="1" source="X7a2hoYvPNBB30fepm00-209" target="X7a2hoYvPNBB30fepm00-17" edge="1">
          <mxGeometry width="50" height="50" relative="1" as="geometry">
            <mxPoint x="200" y="690" as="sourcePoint" />
            <mxPoint x="200.5" y="662" as="targetPoint" />
          </mxGeometry>
        </mxCell>
        <mxCell id="X7a2hoYvPNBB30fepm00-199" value="Description" style="ellipse;whiteSpace=wrap;html=1;" parent="1" vertex="1">
          <mxGeometry x="73" y="890" width="83" height="30" as="geometry" />
        </mxCell>
        <mxCell id="X7a2hoYvPNBB30fepm00-200" value="" style="endArrow=none;html=1;rounded=0;exitX=0.6;exitY=1.007;exitDx=0;exitDy=0;exitPerimeter=0;" parent="1" source="X7a2hoYvPNBB30fepm00-205" target="X7a2hoYvPNBB30fepm00-199" edge="1">
          <mxGeometry width="50" height="50" relative="1" as="geometry">
            <mxPoint x="121" y="906" as="sourcePoint" />
            <mxPoint x="145.5" y="1195.4" as="targetPoint" />
          </mxGeometry>
        </mxCell>
        <mxCell id="X7a2hoYvPNBB30fepm00-203" value="" style="endArrow=none;html=1;rounded=0;exitX=0.25;exitY=1;exitDx=0;exitDy=0;" parent="1" source="X7a2hoYvPNBB30fepm00-205" target="X7a2hoYvPNBB30fepm00-204" edge="1">
          <mxGeometry width="50" height="50" relative="1" as="geometry">
            <mxPoint x="98" y="890" as="sourcePoint" />
            <mxPoint x="28" y="1038" as="targetPoint" />
          </mxGeometry>
        </mxCell>
        <mxCell id="X7a2hoYvPNBB30fepm00-204" value="IS code" style="ellipse;whiteSpace=wrap;html=1;" parent="1" vertex="1">
          <mxGeometry x="25" y="860" width="80" height="30" as="geometry" />
        </mxCell>
        <mxCell id="X7a2hoYvPNBB30fepm00-205" value="Area of Interest" style="rounded=0;whiteSpace=wrap;html=1;" parent="1" vertex="1">
          <mxGeometry x="60" y="810" width="87" height="30" as="geometry" />
        </mxCell>
        <mxCell id="X7a2hoYvPNBB30fepm00-206" value="Interest" style="rhombus;whiteSpace=wrap;html=1;" parent="1" vertex="1">
          <mxGeometry x="83" y="632" width="80" height="80" as="geometry" />
        </mxCell>
        <mxCell id="X7a2hoYvPNBB30fepm00-207" value="" style="endArrow=none;html=1;rounded=0;entryX=0.448;entryY=0.957;entryDx=0;entryDy=0;exitX=0.5;exitY=0;exitDx=0;exitDy=0;entryPerimeter=0;" parent="1" source="X7a2hoYvPNBB30fepm00-205" target="X7a2hoYvPNBB30fepm00-206" edge="1">
          <mxGeometry width="50" height="50" relative="1" as="geometry">
            <mxPoint x="163" y="862" as="sourcePoint" />
            <mxPoint x="127.5" y="712" as="targetPoint" />
          </mxGeometry>
        </mxCell>
        <mxCell id="X7a2hoYvPNBB30fepm00-209" value="Give" style="rhombus;whiteSpace=wrap;html=1;" parent="1" vertex="1">
          <mxGeometry x="190" y="690" width="80" height="80" as="geometry" />
        </mxCell>
        <mxCell id="X7a2hoYvPNBB30fepm00-210" value="" style="endArrow=none;html=1;rounded=0;entryX=0.5;entryY=1;entryDx=0;entryDy=0;exitX=0;exitY=0;exitDx=0;exitDy=0;" parent="1" source="X7a2hoYvPNBB30fepm00-162" target="X7a2hoYvPNBB30fepm00-209" edge="1">
          <mxGeometry width="50" height="50" relative="1" as="geometry">
            <mxPoint x="294" y="890" as="sourcePoint" />
            <mxPoint x="250" y="771" as="targetPoint" />
          </mxGeometry>
        </mxCell>
        <mxCell id="X7a2hoYvPNBB30fepm00-211" value="Type_Setting" style="rounded=0;whiteSpace=wrap;html=1;" parent="1" vertex="1">
          <mxGeometry x="133" y="132" width="87" height="30" as="geometry" />
        </mxCell>
        <mxCell id="X7a2hoYvPNBB30fepm00-214" value="" style="endArrow=none;html=1;rounded=0;entryX=0;entryY=0;entryDx=0;entryDy=0;exitX=1;exitY=0.5;exitDx=0;exitDy=0;" parent="1" source="X7a2hoYvPNBB30fepm00-215" target="X7a2hoYvPNBB30fepm00-41" edge="1">
          <mxGeometry width="50" height="50" relative="1" as="geometry">
            <mxPoint x="333" y="252.0000000000001" as="sourcePoint" />
            <mxPoint x="523" y="252" as="targetPoint" />
          </mxGeometry>
        </mxCell>
        <mxCell id="X7a2hoYvPNBB30fepm00-215" value="Format" style="rhombus;whiteSpace=wrap;html=1;" parent="1" vertex="1">
          <mxGeometry x="388" y="217" width="80" height="80" as="geometry" />
        </mxCell>
        <mxCell id="X7a2hoYvPNBB30fepm00-216" value="" style="endArrow=none;html=1;rounded=0;entryX=0.043;entryY=0.478;entryDx=0;entryDy=0;exitX=0.926;exitY=1.009;exitDx=0;exitDy=0;exitPerimeter=0;entryPerimeter=0;" parent="1" source="X7a2hoYvPNBB30fepm00-211" target="X7a2hoYvPNBB30fepm00-215" edge="1">
          <mxGeometry width="50" height="50" relative="1" as="geometry">
            <mxPoint x="224.5" y="197" as="sourcePoint" />
            <mxPoint x="376.5" y="252" as="targetPoint" />
          </mxGeometry>
        </mxCell>
        <mxCell id="X7a2hoYvPNBB30fepm00-217" value="" style="endArrow=none;html=1;rounded=0;exitX=0.75;exitY=0;exitDx=0;exitDy=0;entryX=0.315;entryY=0.979;entryDx=0;entryDy=0;entryPerimeter=0;" parent="1" source="X7a2hoYvPNBB30fepm00-211" target="X7a2hoYvPNBB30fepm00-218" edge="1">
          <mxGeometry width="50" height="50" relative="1" as="geometry">
            <mxPoint x="204" y="130" as="sourcePoint" />
            <mxPoint x="230" y="90" as="targetPoint" />
          </mxGeometry>
        </mxCell>
        <mxCell id="X7a2hoYvPNBB30fepm00-218" value="Name" style="ellipse;whiteSpace=wrap;html=1;" parent="1" vertex="1">
          <mxGeometry x="188" y="90" width="70" height="30" as="geometry" />
        </mxCell>
        <mxCell id="X7a2hoYvPNBB30fepm00-219" value="" style="endArrow=none;html=1;rounded=0;entryX=0.711;entryY=0.934;entryDx=0;entryDy=0;exitX=0.146;exitY=-0.008;exitDx=0;exitDy=0;exitPerimeter=0;entryPerimeter=0;" parent="1" source="X7a2hoYvPNBB30fepm00-211" target="X7a2hoYvPNBB30fepm00-220" edge="1">
          <mxGeometry width="50" height="50" relative="1" as="geometry">
            <mxPoint x="93" y="132" as="sourcePoint" />
            <mxPoint x="116.50000000000011" y="89.37" as="targetPoint" />
          </mxGeometry>
        </mxCell>
        <mxCell id="X7a2hoYvPNBB30fepm00-220" value="Size" style="ellipse;whiteSpace=wrap;html=1;" parent="1" vertex="1">
          <mxGeometry x="74.5" y="90" width="57" height="30" as="geometry" />
        </mxCell>
        <mxCell id="X7a2hoYvPNBB30fepm00-222" value="" style="endArrow=none;html=1;rounded=0;entryX=0.5;entryY=1;entryDx=0;entryDy=0;" parent="1" source="X7a2hoYvPNBB30fepm00-211" target="X7a2hoYvPNBB30fepm00-223" edge="1">
          <mxGeometry width="50" height="50" relative="1" as="geometry">
            <mxPoint x="154" y="102" as="sourcePoint" />
            <mxPoint x="168.05000000000007" y="59.370000000000005" as="targetPoint" />
          </mxGeometry>
        </mxCell>
        <mxCell id="X7a2hoYvPNBB30fepm00-223" value="Style" style="ellipse;whiteSpace=wrap;html=1;" parent="1" vertex="1">
          <mxGeometry x="147" y="60" width="70" height="30" as="geometry" />
        </mxCell>
        <mxCell id="X7a2hoYvPNBB30fepm00-224" value="" style="endArrow=none;html=1;rounded=0;entryX=0.603;entryY=0.979;entryDx=0;entryDy=0;exitX=0.25;exitY=0;exitDx=0;exitDy=0;entryPerimeter=0;" parent="1" source="X7a2hoYvPNBB30fepm00-211" target="X7a2hoYvPNBB30fepm00-225" edge="1">
          <mxGeometry width="50" height="50" relative="1" as="geometry">
            <mxPoint x="109" y="120" as="sourcePoint" />
            <mxPoint x="101.05000000000007" y="47.370000000000005" as="targetPoint" />
          </mxGeometry>
        </mxCell>
        <mxCell id="X7a2hoYvPNBB30fepm00-225" value="Line Spacing" style="ellipse;whiteSpace=wrap;html=1;" parent="1" vertex="1">
          <mxGeometry x="69" y="40" width="87" height="30" as="geometry" />
        </mxCell>
        <mxCell id="X7a2hoYvPNBB30fepm00-226" value="" style="endArrow=none;html=1;rounded=0;" parent="1" source="X7a2hoYvPNBB30fepm00-211" target="X7a2hoYvPNBB30fepm00-227" edge="1">
          <mxGeometry width="50" height="50" relative="1" as="geometry">
            <mxPoint x="108.75" y="162" as="sourcePoint" />
            <mxPoint x="79.25000000000011" y="119.37" as="targetPoint" />
          </mxGeometry>
        </mxCell>
        <mxCell id="X7a2hoYvPNBB30fepm00-227" value="Justification" style="ellipse;whiteSpace=wrap;html=1;" parent="1" vertex="1">
          <mxGeometry x="20" y="120" width="74.25" height="30" as="geometry" />
        </mxCell>
        <mxCell id="X7a2hoYvPNBB30fepm00-228" value="" style="endArrow=none;html=1;rounded=0;" parent="1" edge="1">
          <mxGeometry width="50" height="50" relative="1" as="geometry">
            <mxPoint x="199" y="111.58000000000011" as="sourcePoint" />
            <mxPoint x="249" y="111.58000000000011" as="targetPoint" />
          </mxGeometry>
        </mxCell>
        <mxCell id="X7a2hoYvPNBB30fepm00-231" value="m" style="text;html=1;strokeColor=none;fillColor=none;align=center;verticalAlign=middle;whiteSpace=wrap;rounded=0;" parent="1" vertex="1">
          <mxGeometry x="320.5" y="210" width="60" height="30" as="geometry" />
        </mxCell>
        <mxCell id="X7a2hoYvPNBB30fepm00-232" value="n" style="text;html=1;strokeColor=none;fillColor=none;align=center;verticalAlign=middle;whiteSpace=wrap;rounded=0;" parent="1" vertex="1">
          <mxGeometry x="460" y="236" width="60" height="30" as="geometry" />
        </mxCell>
        <mxCell id="X7a2hoYvPNBB30fepm00-234" value="Record" style="rhombus;whiteSpace=wrap;html=1;" parent="1" vertex="1">
          <mxGeometry x="580" y="690" width="80" height="80" as="geometry" />
        </mxCell>
        <mxCell id="X7a2hoYvPNBB30fepm00-235" value="" style="endArrow=none;html=1;rounded=0;exitX=1;exitY=0;exitDx=0;exitDy=0;entryX=0.5;entryY=1;entryDx=0;entryDy=0;" parent="1" source="X7a2hoYvPNBB30fepm00-162" target="X7a2hoYvPNBB30fepm00-234" edge="1">
          <mxGeometry width="50" height="50" relative="1" as="geometry">
            <mxPoint x="572" y="828" as="sourcePoint" />
            <mxPoint x="620" y="780" as="targetPoint" />
          </mxGeometry>
        </mxCell>
        <mxCell id="X7a2hoYvPNBB30fepm00-237" value="" style="endArrow=none;html=1;rounded=0;entryX=0.535;entryY=0.954;entryDx=0;entryDy=0;exitX=0.061;exitY=-0.011;exitDx=0;exitDy=0;entryPerimeter=0;exitPerimeter=0;" parent="1" source="X7a2hoYvPNBB30fepm00-162" target="X7a2hoYvPNBB30fepm00-209" edge="1">
          <mxGeometry width="50" height="50" relative="1" as="geometry">
            <mxPoint x="391" y="870" as="sourcePoint" />
            <mxPoint x="240" y="770" as="targetPoint" />
          </mxGeometry>
        </mxCell>
        <mxCell id="X7a2hoYvPNBB30fepm00-238" value="" style="endArrow=none;html=1;rounded=0;" parent="1" edge="1">
          <mxGeometry width="50" height="50" relative="1" as="geometry">
            <mxPoint x="491.5" y="915" as="sourcePoint" />
            <mxPoint x="526" y="915" as="targetPoint" />
          </mxGeometry>
        </mxCell>
        <mxCell id="X7a2hoYvPNBB30fepm00-239" value="" style="endArrow=none;html=1;rounded=0;entryX=0.813;entryY=0.761;entryDx=0;entryDy=0;entryPerimeter=0;" parent="1" edge="1">
          <mxGeometry width="50" height="50" relative="1" as="geometry">
            <mxPoint x="43.75" y="881.83" as="sourcePoint" />
            <mxPoint x="86.03999999999996" y="881.8299999999999" as="targetPoint" />
          </mxGeometry>
        </mxCell>
        <mxCell id="X7a2hoYvPNBB30fepm00-240" value="" style="endArrow=none;html=1;rounded=0;entryX=0.527;entryY=0.036;entryDx=0;entryDy=0;entryPerimeter=0;exitX=0.185;exitY=0.99;exitDx=0;exitDy=0;exitPerimeter=0;" parent="1" source="X7a2hoYvPNBB30fepm00-17" target="X7a2hoYvPNBB30fepm00-206" edge="1">
          <mxGeometry width="50" height="50" relative="1" as="geometry">
            <mxPoint x="150" y="580" as="sourcePoint" />
            <mxPoint x="127" y="633" as="targetPoint" />
          </mxGeometry>
        </mxCell>
        <mxCell id="X7a2hoYvPNBB30fepm00-242" value="n" style="text;html=1;strokeColor=none;fillColor=none;align=center;verticalAlign=middle;whiteSpace=wrap;rounded=0;" parent="1" vertex="1">
          <mxGeometry x="74.5" y="715" width="60" height="30" as="geometry" />
        </mxCell>
        <mxCell id="X7a2hoYvPNBB30fepm00-245" value="" style="endArrow=none;html=1;rounded=0;entryX=0.04;entryY=1.018;entryDx=0;entryDy=0;exitX=0.535;exitY=0.021;exitDx=0;exitDy=0;exitPerimeter=0;entryPerimeter=0;" parent="1" source="X7a2hoYvPNBB30fepm00-234" target="X7a2hoYvPNBB30fepm00-1" edge="1">
          <mxGeometry width="50" height="50" relative="1" as="geometry">
            <mxPoint x="625" y="696" as="sourcePoint" />
            <mxPoint x="673" y="648" as="targetPoint" />
          </mxGeometry>
        </mxCell>
        <mxCell id="X7a2hoYvPNBB30fepm00-246" value="" style="endArrow=none;html=1;rounded=0;exitX=0.929;exitY=-0.004;exitDx=0;exitDy=0;entryX=0.457;entryY=0.958;entryDx=0;entryDy=0;entryPerimeter=0;exitPerimeter=0;" parent="1" source="X7a2hoYvPNBB30fepm00-162" target="X7a2hoYvPNBB30fepm00-234" edge="1">
          <mxGeometry width="50" height="50" relative="1" as="geometry">
            <mxPoint x="461.5" y="870" as="sourcePoint" />
            <mxPoint x="613.5" y="770" as="targetPoint" />
          </mxGeometry>
        </mxCell>
        <mxCell id="X7a2hoYvPNBB30fepm00-247" value="m" style="text;html=1;strokeColor=none;fillColor=none;align=center;verticalAlign=middle;whiteSpace=wrap;rounded=0;" parent="1" vertex="1">
          <mxGeometry x="535.5" y="762" width="60" height="30" as="geometry" />
        </mxCell>
        <mxCell id="X7a2hoYvPNBB30fepm00-248" value="1" style="text;html=1;strokeColor=none;fillColor=none;align=center;verticalAlign=middle;whiteSpace=wrap;rounded=0;" parent="1" vertex="1">
          <mxGeometry x="200" y="650" width="60" height="30" as="geometry" />
        </mxCell>
        <mxCell id="X7a2hoYvPNBB30fepm00-249" value="m" style="text;html=1;strokeColor=none;fillColor=none;align=center;verticalAlign=middle;whiteSpace=wrap;rounded=0;" parent="1" vertex="1">
          <mxGeometry x="260.5" y="765" width="60" height="30" as="geometry" />
        </mxCell>
        <mxCell id="X7a2hoYvPNBB30fepm00-250" value="" style="endArrow=none;html=1;rounded=0;entryX=0.556;entryY=1.005;entryDx=0;entryDy=0;exitX=0.548;exitY=0.043;exitDx=0;exitDy=0;entryPerimeter=0;exitPerimeter=0;" parent="1" source="X7a2hoYvPNBB30fepm00-67" target="X7a2hoYvPNBB30fepm00-41" edge="1">
          <mxGeometry width="50" height="50" relative="1" as="geometry">
            <mxPoint x="621" y="457" as="sourcePoint" />
            <mxPoint x="658" y="347" as="targetPoint" />
          </mxGeometry>
        </mxCell>
        <mxCell id="7PUWkwdGCThWDM6_Py3y-1" value="" style="endArrow=none;html=1;rounded=0;" parent="1" edge="1">
          <mxGeometry width="50" height="50" relative="1" as="geometry">
            <mxPoint x="650" y="415" as="sourcePoint" />
            <mxPoint x="715" y="415" as="targetPoint" />
          </mxGeometry>
        </mxCell>
        <mxCell id="7PUWkwdGCThWDM6_Py3y-3" value="Select" style="rhombus;whiteSpace=wrap;html=1;" parent="1" vertex="1">
          <mxGeometry x="400" y="592" width="80" height="80" as="geometry" />
        </mxCell>
        <mxCell id="7PUWkwdGCThWDM6_Py3y-5" value="" style="endArrow=none;html=1;rounded=0;exitX=1;exitY=0.5;exitDx=0;exitDy=0;entryX=0;entryY=0.5;entryDx=0;entryDy=0;" parent="1" source="X7a2hoYvPNBB30fepm00-17" target="7PUWkwdGCThWDM6_Py3y-3" edge="1">
          <mxGeometry width="50" height="50" relative="1" as="geometry">
            <mxPoint x="300" y="600" as="sourcePoint" />
            <mxPoint x="350" y="550" as="targetPoint" />
          </mxGeometry>
        </mxCell>
        <mxCell id="7PUWkwdGCThWDM6_Py3y-6" value="" style="endArrow=none;html=1;rounded=0;exitX=1;exitY=0.5;exitDx=0;exitDy=0;entryX=0;entryY=0.5;entryDx=0;entryDy=0;" parent="1" source="7PUWkwdGCThWDM6_Py3y-3" target="X7a2hoYvPNBB30fepm00-1" edge="1">
          <mxGeometry width="50" height="50" relative="1" as="geometry">
            <mxPoint x="483" y="628" as="sourcePoint" />
            <mxPoint x="658" y="702" as="targetPoint" />
          </mxGeometry>
        </mxCell>
        <mxCell id="LZy5zHJb8noDYSvceaef-1" value="" style="ellipse;whiteSpace=wrap;html=1;" parent="1" vertex="1">
          <mxGeometry x="688" y="354.25" width="98" height="35.5" as="geometry" />
        </mxCell>
        <mxCell id="7PUWkwdGCThWDM6_Py3y-7" value="1" style="text;html=1;strokeColor=none;fillColor=none;align=center;verticalAlign=middle;whiteSpace=wrap;rounded=0;" parent="1" vertex="1">
          <mxGeometry x="575" y="602" width="60" height="30" as="geometry" />
        </mxCell>
        <mxCell id="7PUWkwdGCThWDM6_Py3y-8" value="m" style="text;html=1;strokeColor=none;fillColor=none;align=center;verticalAlign=middle;whiteSpace=wrap;rounded=0;" parent="1" vertex="1">
          <mxGeometry x="217" y="542" width="60" height="30" as="geometry" />
        </mxCell>
        <mxCell id="X7a2hoYvPNBB30fepm00-187" value="Status" style="ellipse;whiteSpace=wrap;html=1;" parent="1" vertex="1">
          <mxGeometry x="697" y="357" width="80" height="30" as="geometry" />
        </mxCell>
        <mxCell id="LZy5zHJb8noDYSvceaef-2" value="" style="ellipse;whiteSpace=wrap;html=1;" parent="1" vertex="1">
          <mxGeometry x="483.25" y="929" width="114.5" height="50" as="geometry" />
        </mxCell>
        <mxCell id="X7a2hoYvPNBB30fepm00-154" value="Recommendation" style="ellipse;whiteSpace=wrap;html=1;" parent="1" vertex="1">
          <mxGeometry x="485.5" y="934" width="110" height="40" as="geometry" />
        </mxCell>
        <mxCell id="LZy5zHJb8noDYSvceaef-3" value="" style="ellipse;whiteSpace=wrap;html=1;" parent="1" vertex="1">
          <mxGeometry x="25" y="340.5" width="93" height="43" as="geometry" />
        </mxCell>
        <mxCell id="X7a2hoYvPNBB30fepm00-16" value="Affiliation" style="ellipse;whiteSpace=wrap;html=1;" parent="1" vertex="1">
          <mxGeometry x="33" y="347" width="80" height="30" as="geometry" />
        </mxCell>
      </root>
    </mxGraphModel>
  </diagram>
  <diagram id="vRfnrgMztkSegEpvAtXX" name="ERD-Normalization">
    <mxGraphModel dx="2026" dy="691" grid="1" gridSize="10" guides="1" tooltips="1" connect="1" arrows="1" fold="1" page="1" pageScale="1" pageWidth="850" pageHeight="1100" math="0" shadow="0">
      <root>
        <mxCell id="0" />
        <mxCell id="1" parent="0" />
        <mxCell id="sZ7ubH6q6hc7RfNFq8iv-1" value="" style="ellipse;whiteSpace=wrap;html=1;container=0;" parent="1" vertex="1">
          <mxGeometry x="583" y="25" width="127" height="40" as="geometry">
            <mxRectangle x="583" y="25" width="50" height="40" as="alternateBounds" />
          </mxGeometry>
        </mxCell>
        <mxCell id="1FLILuH23P1DLxQ2TV-P-9" style="edgeStyle=orthogonalEdgeStyle;rounded=0;orthogonalLoop=1;jettySize=auto;html=1;entryX=1;entryY=1;entryDx=0;entryDy=0;" parent="1" source="NtUWNruWv3vqtCbzeLsO-2" target="1FLILuH23P1DLxQ2TV-P-4" edge="1">
          <mxGeometry relative="1" as="geometry">
            <mxPoint x="-1351.4285714285716" y="720" as="targetPoint" />
            <Array as="points">
              <mxPoint x="703" y="1070" />
              <mxPoint x="-380" y="1070" />
              <mxPoint x="-380" y="578" />
            </Array>
          </mxGeometry>
        </mxCell>
        <mxCell id="NtUWNruWv3vqtCbzeLsO-2" value="Editor" style="rounded=0;whiteSpace=wrap;html=1;" parent="1" vertex="1">
          <mxGeometry x="668" y="612" width="70" height="30" as="geometry" />
        </mxCell>
        <mxCell id="NtUWNruWv3vqtCbzeLsO-5" value="" style="endArrow=none;html=1;rounded=0;" parent="1" source="NtUWNruWv3vqtCbzeLsO-2" target="NtUWNruWv3vqtCbzeLsO-49" edge="1">
          <mxGeometry width="50" height="50" relative="1" as="geometry">
            <mxPoint x="663.53" y="612" as="sourcePoint" />
            <mxPoint x="668" y="573.3199999999999" as="targetPoint" />
          </mxGeometry>
        </mxCell>
        <mxCell id="NtUWNruWv3vqtCbzeLsO-6" value="" style="endArrow=none;html=1;rounded=0;exitX=0.5;exitY=0;exitDx=0;exitDy=0;" parent="1" source="NtUWNruWv3vqtCbzeLsO-2" target="NtUWNruWv3vqtCbzeLsO-7" edge="1">
          <mxGeometry width="50" height="50" relative="1" as="geometry">
            <mxPoint x="638" y="622" as="sourcePoint" />
            <mxPoint x="688" y="572" as="targetPoint" />
          </mxGeometry>
        </mxCell>
        <mxCell id="NtUWNruWv3vqtCbzeLsO-7" value="Years of Expertise" style="ellipse;whiteSpace=wrap;html=1;" parent="1" vertex="1">
          <mxGeometry x="673" y="532" width="110" height="30" as="geometry" />
        </mxCell>
        <mxCell id="NtUWNruWv3vqtCbzeLsO-8" value="Authors" style="rounded=0;whiteSpace=wrap;html=1;" parent="1" vertex="1">
          <mxGeometry x="123" y="352" width="70" height="30" as="geometry" />
        </mxCell>
        <mxCell id="NtUWNruWv3vqtCbzeLsO-13" value="" style="endArrow=none;html=1;rounded=0;exitX=0.5;exitY=0;exitDx=0;exitDy=0;" parent="1" source="NtUWNruWv3vqtCbzeLsO-8" target="NtUWNruWv3vqtCbzeLsO-14" edge="1">
          <mxGeometry width="50" height="50" relative="1" as="geometry">
            <mxPoint x="93" y="362" as="sourcePoint" />
            <mxPoint x="143" y="312" as="targetPoint" />
          </mxGeometry>
        </mxCell>
        <mxCell id="NtUWNruWv3vqtCbzeLsO-14" value="Mailing Address" style="ellipse;whiteSpace=wrap;html=1;" parent="1" vertex="1">
          <mxGeometry x="116" y="302" width="100" height="30" as="geometry" />
        </mxCell>
        <mxCell id="NtUWNruWv3vqtCbzeLsO-16" value="Reviewers" style="rounded=0;whiteSpace=wrap;html=1;" parent="1" vertex="1">
          <mxGeometry x="140" y="534.5" width="70" height="47.5" as="geometry" />
        </mxCell>
        <mxCell id="NtUWNruWv3vqtCbzeLsO-23" value="" style="endArrow=none;html=1;rounded=0;exitX=0.5;exitY=0;exitDx=0;exitDy=0;" parent="1" source="NtUWNruWv3vqtCbzeLsO-16" target="NtUWNruWv3vqtCbzeLsO-24" edge="1">
          <mxGeometry width="50" height="50" relative="1" as="geometry">
            <mxPoint x="60" y="599.5" as="sourcePoint" />
            <mxPoint x="110" y="549.5" as="targetPoint" />
          </mxGeometry>
        </mxCell>
        <mxCell id="NtUWNruWv3vqtCbzeLsO-24" value="Rev No" style="ellipse;whiteSpace=wrap;html=1;" parent="1" vertex="1">
          <mxGeometry x="135" y="478.5" width="80" height="30" as="geometry" />
        </mxCell>
        <mxCell id="NtUWNruWv3vqtCbzeLsO-25" value="" style="endArrow=none;html=1;rounded=0;exitX=0.124;exitY=0.989;exitDx=0;exitDy=0;exitPerimeter=0;entryX=0.5;entryY=0;entryDx=0;entryDy=0;" parent="1" source="NtUWNruWv3vqtCbzeLsO-16" target="NtUWNruWv3vqtCbzeLsO-95" edge="1">
          <mxGeometry width="50" height="50" relative="1" as="geometry">
            <mxPoint x="225" y="534.5" as="sourcePoint" />
            <mxPoint x="120" y="670" as="targetPoint" />
          </mxGeometry>
        </mxCell>
        <mxCell id="NtUWNruWv3vqtCbzeLsO-26" value="Issue" style="rounded=0;whiteSpace=wrap;html=1;" parent="1" vertex="1">
          <mxGeometry x="570" y="100" width="70" height="30" as="geometry" />
        </mxCell>
        <mxCell id="NtUWNruWv3vqtCbzeLsO-27" value="" style="endArrow=none;html=1;rounded=0;exitX=0.138;exitY=1.041;exitDx=0;exitDy=0;exitPerimeter=0;" parent="1" source="NtUWNruWv3vqtCbzeLsO-26" target="NtUWNruWv3vqtCbzeLsO-28" edge="1">
          <mxGeometry width="50" height="50" relative="1" as="geometry">
            <mxPoint x="620" y="100" as="sourcePoint" />
            <mxPoint x="670" y="50" as="targetPoint" />
          </mxGeometry>
        </mxCell>
        <mxCell id="NtUWNruWv3vqtCbzeLsO-28" value="Pub_year" style="ellipse;whiteSpace=wrap;html=1;" parent="1" vertex="1">
          <mxGeometry x="497.5" y="140" width="80" height="30" as="geometry" />
        </mxCell>
        <mxCell id="NtUWNruWv3vqtCbzeLsO-29" value="" style="endArrow=none;html=1;rounded=0;exitX=0.096;exitY=0.01;exitDx=0;exitDy=0;exitPerimeter=0;" parent="1" source="NtUWNruWv3vqtCbzeLsO-26" target="NtUWNruWv3vqtCbzeLsO-30" edge="1">
          <mxGeometry width="50" height="50" relative="1" as="geometry">
            <mxPoint x="565.53" y="100" as="sourcePoint" />
            <mxPoint x="570" y="61.319999999999936" as="targetPoint" />
          </mxGeometry>
        </mxCell>
        <mxCell id="NtUWNruWv3vqtCbzeLsO-30" value="Volume" style="ellipse;whiteSpace=wrap;html=1;" parent="1" vertex="1">
          <mxGeometry x="520" y="50" width="60" height="30" as="geometry" />
        </mxCell>
        <mxCell id="NtUWNruWv3vqtCbzeLsO-31" value="" style="endArrow=none;html=1;rounded=0;exitX=0.75;exitY=0;exitDx=0;exitDy=0;entryX=0.407;entryY=0.978;entryDx=0;entryDy=0;entryPerimeter=0;" parent="1" source="NtUWNruWv3vqtCbzeLsO-26" target="sZ7ubH6q6hc7RfNFq8iv-1" edge="1">
          <mxGeometry width="50" height="50" relative="1" as="geometry">
            <mxPoint x="540" y="110" as="sourcePoint" />
            <mxPoint x="590" y="60" as="targetPoint" />
          </mxGeometry>
        </mxCell>
        <mxCell id="NtUWNruWv3vqtCbzeLsO-32" value="Publication_period" style="ellipse;whiteSpace=wrap;html=1;container=0;" parent="1" vertex="1">
          <mxGeometry x="590" y="30" width="110" height="30" as="geometry" />
        </mxCell>
        <mxCell id="NtUWNruWv3vqtCbzeLsO-33" value="" style="endArrow=none;html=1;rounded=0;exitX=0;exitY=0.5;exitDx=0;exitDy=0;" parent="1" source="NtUWNruWv3vqtCbzeLsO-26" target="NtUWNruWv3vqtCbzeLsO-34" edge="1">
          <mxGeometry width="50" height="50" relative="1" as="geometry">
            <mxPoint x="490" y="165" as="sourcePoint" />
            <mxPoint x="540" y="115" as="targetPoint" />
          </mxGeometry>
        </mxCell>
        <mxCell id="NtUWNruWv3vqtCbzeLsO-34" value="Issue_No" style="ellipse;whiteSpace=wrap;html=1;" parent="1" vertex="1">
          <mxGeometry x="480" y="95" width="80" height="30" as="geometry" />
        </mxCell>
        <mxCell id="NtUWNruWv3vqtCbzeLsO-35" value="Manuscript" style="rounded=0;whiteSpace=wrap;html=1;" parent="1" vertex="1">
          <mxGeometry x="578" y="312" width="70" height="30" as="geometry" />
        </mxCell>
        <mxCell id="NtUWNruWv3vqtCbzeLsO-36" value="" style="endArrow=none;html=1;rounded=0;exitX=0.75;exitY=0;exitDx=0;exitDy=0;" parent="1" source="NtUWNruWv3vqtCbzeLsO-35" target="NtUWNruWv3vqtCbzeLsO-37" edge="1">
          <mxGeometry width="50" height="50" relative="1" as="geometry">
            <mxPoint x="586" y="337" as="sourcePoint" />
            <mxPoint x="636" y="287" as="targetPoint" />
          </mxGeometry>
        </mxCell>
        <mxCell id="NtUWNruWv3vqtCbzeLsO-37" value="Title" style="ellipse;whiteSpace=wrap;html=1;" parent="1" vertex="1">
          <mxGeometry x="660" y="266" width="80" height="30" as="geometry" />
        </mxCell>
        <mxCell id="NtUWNruWv3vqtCbzeLsO-38" value="" style="endArrow=none;html=1;rounded=0;exitX=1;exitY=0.5;exitDx=0;exitDy=0;" parent="1" source="NtUWNruWv3vqtCbzeLsO-8" target="NtUWNruWv3vqtCbzeLsO-39" edge="1">
          <mxGeometry width="50" height="50" relative="1" as="geometry">
            <mxPoint x="278" y="402" as="sourcePoint" />
            <mxPoint x="328" y="352" as="targetPoint" />
          </mxGeometry>
        </mxCell>
        <mxCell id="NtUWNruWv3vqtCbzeLsO-39" value="Submit" style="rhombus;whiteSpace=wrap;html=1;" parent="1" vertex="1">
          <mxGeometry x="333" y="332" width="80" height="80" as="geometry" />
        </mxCell>
        <mxCell id="NtUWNruWv3vqtCbzeLsO-42" value="" style="endArrow=none;html=1;rounded=0;" parent="1" edge="1">
          <mxGeometry width="50" height="50" relative="1" as="geometry">
            <mxPoint x="494" y="118.63000000000011" as="sourcePoint" />
            <mxPoint x="544" y="118.63000000000011" as="targetPoint" />
          </mxGeometry>
        </mxCell>
        <mxCell id="NtUWNruWv3vqtCbzeLsO-43" value="" style="endArrow=none;html=1;rounded=0;entryX=0;entryY=0.5;entryDx=0;entryDy=0;exitX=1;exitY=0.5;exitDx=0;exitDy=0;" parent="1" source="NtUWNruWv3vqtCbzeLsO-39" target="NtUWNruWv3vqtCbzeLsO-35" edge="1">
          <mxGeometry width="50" height="50" relative="1" as="geometry">
            <mxPoint x="438" y="382" as="sourcePoint" />
            <mxPoint x="606" y="394" as="targetPoint" />
          </mxGeometry>
        </mxCell>
        <mxCell id="NtUWNruWv3vqtCbzeLsO-44" value="" style="endArrow=none;html=1;rounded=0;exitX=0.994;exitY=0.596;exitDx=0;exitDy=0;exitPerimeter=0;entryX=0.029;entryY=0.537;entryDx=0;entryDy=0;entryPerimeter=0;" parent="1" source="NtUWNruWv3vqtCbzeLsO-8" target="NtUWNruWv3vqtCbzeLsO-39" edge="1">
          <mxGeometry width="50" height="50" relative="1" as="geometry">
            <mxPoint x="193" y="370" as="sourcePoint" />
            <mxPoint x="334" y="374" as="targetPoint" />
          </mxGeometry>
        </mxCell>
        <mxCell id="NtUWNruWv3vqtCbzeLsO-45" value="" style="endArrow=none;html=1;rounded=0;exitX=0.952;exitY=0.547;exitDx=0;exitDy=0;exitPerimeter=0;" parent="1" source="NtUWNruWv3vqtCbzeLsO-39" target="NtUWNruWv3vqtCbzeLsO-35" edge="1">
          <mxGeometry width="50" height="50" relative="1" as="geometry">
            <mxPoint x="413" y="377" as="sourcePoint" />
            <mxPoint x="578" y="357" as="targetPoint" />
          </mxGeometry>
        </mxCell>
        <mxCell id="NtUWNruWv3vqtCbzeLsO-46" value="m" style="text;html=1;strokeColor=none;fillColor=none;align=center;verticalAlign=middle;whiteSpace=wrap;rounded=0;" parent="1" vertex="1">
          <mxGeometry x="258" y="347" width="60" height="30" as="geometry" />
        </mxCell>
        <mxCell id="NtUWNruWv3vqtCbzeLsO-47" value="n" style="text;html=1;strokeColor=none;fillColor=none;align=center;verticalAlign=middle;whiteSpace=wrap;rounded=0;" parent="1" vertex="1">
          <mxGeometry x="408" y="343" width="60" height="30" as="geometry" />
        </mxCell>
        <mxCell id="NtUWNruWv3vqtCbzeLsO-48" value="" style="group" parent="1" vertex="1" connectable="0">
          <mxGeometry x="738" y="672" width="80" height="30" as="geometry" />
        </mxCell>
        <mxCell id="NtUWNruWv3vqtCbzeLsO-49" value="Mobile No" style="ellipse;whiteSpace=wrap;html=1;" parent="NtUWNruWv3vqtCbzeLsO-48" vertex="1">
          <mxGeometry width="80" height="30" as="geometry" />
        </mxCell>
        <mxCell id="NtUWNruWv3vqtCbzeLsO-50" value="" style="endArrow=none;html=1;rounded=0;" parent="NtUWNruWv3vqtCbzeLsO-48" edge="1">
          <mxGeometry width="50" height="50" relative="1" as="geometry">
            <mxPoint x="15" y="21" as="sourcePoint" />
            <mxPoint x="65" y="21" as="targetPoint" />
          </mxGeometry>
        </mxCell>
        <mxCell id="NtUWNruWv3vqtCbzeLsO-51" value="" style="endArrow=none;html=1;rounded=0;entryX=0.5;entryY=1;entryDx=0;entryDy=0;exitX=0.5;exitY=0;exitDx=0;exitDy=0;" parent="1" source="NtUWNruWv3vqtCbzeLsO-52" target="NtUWNruWv3vqtCbzeLsO-35" edge="1">
          <mxGeometry width="50" height="50" relative="1" as="geometry">
            <mxPoint x="568" y="452" as="sourcePoint" />
            <mxPoint x="548" y="462" as="targetPoint" />
          </mxGeometry>
        </mxCell>
        <mxCell id="NtUWNruWv3vqtCbzeLsO-52" value="Received" style="rhombus;whiteSpace=wrap;html=1;" parent="1" vertex="1">
          <mxGeometry x="578" y="452" width="80" height="80" as="geometry" />
        </mxCell>
        <mxCell id="NtUWNruWv3vqtCbzeLsO-53" value="" style="endArrow=none;html=1;rounded=0;entryX=0.5;entryY=1;entryDx=0;entryDy=0;exitX=-0.007;exitY=0.071;exitDx=0;exitDy=0;exitPerimeter=0;" parent="1" source="NtUWNruWv3vqtCbzeLsO-2" target="NtUWNruWv3vqtCbzeLsO-52" edge="1">
          <mxGeometry width="50" height="50" relative="1" as="geometry">
            <mxPoint x="578" y="612" as="sourcePoint" />
            <mxPoint x="603" y="537" as="targetPoint" />
          </mxGeometry>
        </mxCell>
        <mxCell id="NtUWNruWv3vqtCbzeLsO-54" value="" style="endArrow=none;html=1;rounded=0;entryX=0.117;entryY=0.989;entryDx=0;entryDy=0;entryPerimeter=0;exitX=1;exitY=0.5;exitDx=0;exitDy=0;" parent="1" source="NtUWNruWv3vqtCbzeLsO-55" target="NtUWNruWv3vqtCbzeLsO-35" edge="1">
          <mxGeometry width="50" height="50" relative="1" as="geometry">
            <mxPoint x="488" y="467" as="sourcePoint" />
            <mxPoint x="538" y="417" as="targetPoint" />
          </mxGeometry>
        </mxCell>
        <mxCell id="NtUWNruWv3vqtCbzeLsO-55" value="Review" style="rhombus;whiteSpace=wrap;html=1;" parent="1" vertex="1">
          <mxGeometry x="378" y="464.5" width="80" height="80" as="geometry" />
        </mxCell>
        <mxCell id="NtUWNruWv3vqtCbzeLsO-56" value="" style="endArrow=none;html=1;rounded=0;entryX=0;entryY=0.5;entryDx=0;entryDy=0;exitX=1;exitY=0;exitDx=0;exitDy=0;" parent="1" source="NtUWNruWv3vqtCbzeLsO-16" target="NtUWNruWv3vqtCbzeLsO-55" edge="1">
          <mxGeometry width="50" height="50" relative="1" as="geometry">
            <mxPoint x="290" y="644.5" as="sourcePoint" />
            <mxPoint x="398" y="506.5" as="targetPoint" />
          </mxGeometry>
        </mxCell>
        <mxCell id="NtUWNruWv3vqtCbzeLsO-57" value="m" style="text;html=1;strokeColor=none;fillColor=none;align=center;verticalAlign=middle;whiteSpace=wrap;rounded=0;" parent="1" vertex="1">
          <mxGeometry x="318" y="485.5" width="60" height="30" as="geometry" />
        </mxCell>
        <mxCell id="NtUWNruWv3vqtCbzeLsO-58" value="n" style="text;html=1;strokeColor=none;fillColor=none;align=center;verticalAlign=middle;whiteSpace=wrap;rounded=0;" parent="1" vertex="1">
          <mxGeometry x="428.75" y="444.5" width="60" height="30" as="geometry" />
        </mxCell>
        <mxCell id="NtUWNruWv3vqtCbzeLsO-59" value="" style="endArrow=none;html=1;rounded=0;entryX=0;entryY=1;entryDx=0;entryDy=0;exitX=0.5;exitY=0;exitDx=0;exitDy=0;" parent="1" source="NtUWNruWv3vqtCbzeLsO-118" target="NtUWNruWv3vqtCbzeLsO-2" edge="1">
          <mxGeometry width="50" height="50" relative="1" as="geometry">
            <mxPoint x="620" y="720" as="sourcePoint" />
            <mxPoint x="588" y="629.5" as="targetPoint" />
          </mxGeometry>
        </mxCell>
        <mxCell id="NtUWNruWv3vqtCbzeLsO-60" value="m" style="text;html=1;strokeColor=none;fillColor=none;align=center;verticalAlign=middle;whiteSpace=wrap;rounded=0;" parent="1" vertex="1">
          <mxGeometry x="87" y="602" width="60" height="30" as="geometry" />
        </mxCell>
        <mxCell id="NtUWNruWv3vqtCbzeLsO-61" value="1" style="text;html=1;strokeColor=none;fillColor=none;align=center;verticalAlign=middle;whiteSpace=wrap;rounded=0;" parent="1" vertex="1">
          <mxGeometry x="590" y="660" width="60" height="30" as="geometry" />
        </mxCell>
        <mxCell id="NtUWNruWv3vqtCbzeLsO-62" value="m" style="text;html=1;strokeColor=none;fillColor=none;align=center;verticalAlign=middle;whiteSpace=wrap;rounded=0;" parent="1" vertex="1">
          <mxGeometry x="536" y="417" width="60" height="30" as="geometry" />
        </mxCell>
        <mxCell id="NtUWNruWv3vqtCbzeLsO-63" value="1" style="text;html=1;strokeColor=none;fillColor=none;align=center;verticalAlign=middle;whiteSpace=wrap;rounded=0;" parent="1" vertex="1">
          <mxGeometry x="611" y="532" width="60" height="30" as="geometry" />
        </mxCell>
        <mxCell id="NtUWNruWv3vqtCbzeLsO-64" value="Publish" style="rhombus;whiteSpace=wrap;html=1;" parent="1" vertex="1">
          <mxGeometry x="591" y="192" width="80" height="80" as="geometry" />
        </mxCell>
        <mxCell id="NtUWNruWv3vqtCbzeLsO-65" value="" style="endArrow=none;html=1;rounded=0;exitX=0.432;exitY=0.987;exitDx=0;exitDy=0;entryX=0.475;entryY=0.039;entryDx=0;entryDy=0;entryPerimeter=0;exitPerimeter=0;" parent="1" source="NtUWNruWv3vqtCbzeLsO-26" target="NtUWNruWv3vqtCbzeLsO-64" edge="1">
          <mxGeometry width="50" height="50" relative="1" as="geometry">
            <mxPoint x="405.5" y="232" as="sourcePoint" />
            <mxPoint x="455.5" y="182" as="targetPoint" />
          </mxGeometry>
        </mxCell>
        <mxCell id="NtUWNruWv3vqtCbzeLsO-66" value="" style="endArrow=none;html=1;rounded=0;exitX=0.5;exitY=1;exitDx=0;exitDy=0;entryX=0.5;entryY=0;entryDx=0;entryDy=0;" parent="1" source="NtUWNruWv3vqtCbzeLsO-26" target="NtUWNruWv3vqtCbzeLsO-64" edge="1">
          <mxGeometry width="50" height="50" relative="1" as="geometry">
            <mxPoint x="405" y="133" as="sourcePoint" />
            <mxPoint x="492" y="220" as="targetPoint" />
          </mxGeometry>
        </mxCell>
        <mxCell id="NtUWNruWv3vqtCbzeLsO-67" value="" style="endArrow=none;html=1;rounded=0;entryX=0.5;entryY=0;entryDx=0;entryDy=0;exitX=0.376;exitY=0.884;exitDx=0;exitDy=0;exitPerimeter=0;" parent="1" source="NtUWNruWv3vqtCbzeLsO-64" target="NtUWNruWv3vqtCbzeLsO-35" edge="1">
          <mxGeometry width="50" height="50" relative="1" as="geometry">
            <mxPoint x="589" y="272" as="sourcePoint" />
            <mxPoint x="588" y="322" as="targetPoint" />
          </mxGeometry>
        </mxCell>
        <mxCell id="NtUWNruWv3vqtCbzeLsO-68" value="1" style="text;html=1;strokeColor=none;fillColor=none;align=center;verticalAlign=middle;whiteSpace=wrap;rounded=0;" parent="1" vertex="1">
          <mxGeometry x="608" y="150" width="60" height="30" as="geometry" />
        </mxCell>
        <mxCell id="NtUWNruWv3vqtCbzeLsO-69" value="m" style="text;html=1;strokeColor=none;fillColor=none;align=center;verticalAlign=middle;whiteSpace=wrap;rounded=0;" parent="1" vertex="1">
          <mxGeometry x="640" y="242" width="45" height="28" as="geometry" />
        </mxCell>
        <mxCell id="NtUWNruWv3vqtCbzeLsO-70" value="Appropriateness rating" style="ellipse;whiteSpace=wrap;html=1;" parent="1" vertex="1">
          <mxGeometry x="240.5" y="894" width="120" height="40" as="geometry" />
        </mxCell>
        <mxCell id="NtUWNruWv3vqtCbzeLsO-72" value="" style="endArrow=none;html=1;rounded=0;exitX=0.002;exitY=0.926;exitDx=0;exitDy=0;exitPerimeter=0;" parent="1" source="NtUWNruWv3vqtCbzeLsO-83" target="NtUWNruWv3vqtCbzeLsO-70" edge="1">
          <mxGeometry width="50" height="50" relative="1" as="geometry">
            <mxPoint x="413.70000000000005" y="907.1199999999999" as="sourcePoint" />
            <mxPoint x="352.5" y="926" as="targetPoint" />
          </mxGeometry>
        </mxCell>
        <mxCell id="NtUWNruWv3vqtCbzeLsO-73" value="" style="endArrow=none;html=1;rounded=0;exitX=0.932;exitY=0.966;exitDx=0;exitDy=0;exitPerimeter=0;" parent="1" source="NtUWNruWv3vqtCbzeLsO-83" target="NtUWNruWv3vqtCbzeLsO-74" edge="1">
          <mxGeometry width="50" height="50" relative="1" as="geometry">
            <mxPoint x="467.9690283240262" y="904.5309716759739" as="sourcePoint" />
            <mxPoint x="413.5" y="909" as="targetPoint" />
          </mxGeometry>
        </mxCell>
        <mxCell id="NtUWNruWv3vqtCbzeLsO-74" value="ID" style="ellipse;whiteSpace=wrap;html=1;" parent="1" vertex="1">
          <mxGeometry x="485.5" y="894" width="44.5" height="30" as="geometry" />
        </mxCell>
        <mxCell id="NtUWNruWv3vqtCbzeLsO-75" value="" style="endArrow=none;html=1;rounded=0;exitX=0.885;exitY=1;exitDx=0;exitDy=0;exitPerimeter=0;entryX=0.094;entryY=0.169;entryDx=0;entryDy=0;entryPerimeter=0;" parent="1" source="NtUWNruWv3vqtCbzeLsO-83" target="NtUWNruWv3vqtCbzeLsO-140" edge="1">
          <mxGeometry width="50" height="50" relative="1" as="geometry">
            <mxPoint x="451.30000000000007" y="920.96" as="sourcePoint" />
            <mxPoint x="468.5" y="969" as="targetPoint" />
          </mxGeometry>
        </mxCell>
        <mxCell id="NtUWNruWv3vqtCbzeLsO-77" value="Contribution to field rating" style="ellipse;whiteSpace=wrap;html=1;" parent="1" vertex="1">
          <mxGeometry x="407.5" y="964" width="102.5" height="40" as="geometry" />
        </mxCell>
        <mxCell id="NtUWNruWv3vqtCbzeLsO-78" value="" style="endArrow=none;html=1;rounded=0;exitX=0.6;exitY=1.007;exitDx=0;exitDy=0;exitPerimeter=0;" parent="1" source="NtUWNruWv3vqtCbzeLsO-83" target="NtUWNruWv3vqtCbzeLsO-77" edge="1">
          <mxGeometry width="50" height="50" relative="1" as="geometry">
            <mxPoint x="441.5" y="930" as="sourcePoint" />
            <mxPoint x="466" y="1219.4" as="targetPoint" />
          </mxGeometry>
        </mxCell>
        <mxCell id="NtUWNruWv3vqtCbzeLsO-79" value="" style="endArrow=none;html=1;rounded=0;exitX=0.5;exitY=1;exitDx=0;exitDy=0;" parent="1" source="NtUWNruWv3vqtCbzeLsO-83" target="NtUWNruWv3vqtCbzeLsO-80" edge="1">
          <mxGeometry width="50" height="50" relative="1" as="geometry">
            <mxPoint x="424.5" y="919" as="sourcePoint" />
            <mxPoint x="378.5" y="1107" as="targetPoint" />
          </mxGeometry>
        </mxCell>
        <mxCell id="NtUWNruWv3vqtCbzeLsO-80" value="Methodology rating" style="ellipse;whiteSpace=wrap;html=1;" parent="1" vertex="1">
          <mxGeometry x="343" y="1004" width="95" height="45" as="geometry" />
        </mxCell>
        <mxCell id="NtUWNruWv3vqtCbzeLsO-81" value="" style="endArrow=none;html=1;rounded=0;exitX=0.25;exitY=1;exitDx=0;exitDy=0;" parent="1" source="NtUWNruWv3vqtCbzeLsO-83" target="NtUWNruWv3vqtCbzeLsO-82" edge="1">
          <mxGeometry width="50" height="50" relative="1" as="geometry">
            <mxPoint x="418.5" y="914" as="sourcePoint" />
            <mxPoint x="348.5" y="1062" as="targetPoint" />
          </mxGeometry>
        </mxCell>
        <mxCell id="NtUWNruWv3vqtCbzeLsO-82" value="Clarity rating" style="ellipse;whiteSpace=wrap;html=1;" parent="1" vertex="1">
          <mxGeometry x="320.5" y="939" width="80" height="30" as="geometry" />
        </mxCell>
        <mxCell id="NtUWNruWv3vqtCbzeLsO-83" value="Feedback" style="rounded=0;whiteSpace=wrap;html=1;" parent="1" vertex="1">
          <mxGeometry x="380.5" y="834" width="87" height="30" as="geometry" />
        </mxCell>
        <mxCell id="NtUWNruWv3vqtCbzeLsO-86" value="" style="endArrow=none;html=1;rounded=0;exitX=1;exitY=0.25;exitDx=0;exitDy=0;" parent="1" source="NtUWNruWv3vqtCbzeLsO-35" target="NtUWNruWv3vqtCbzeLsO-135" edge="1">
          <mxGeometry width="50" height="50" relative="1" as="geometry">
            <mxPoint x="658" y="346" as="sourcePoint" />
            <mxPoint x="678" y="360" as="targetPoint" />
          </mxGeometry>
        </mxCell>
        <mxCell id="NtUWNruWv3vqtCbzeLsO-87" value="" style="endArrow=none;html=1;rounded=0;exitX=0.298;exitY=0.032;exitDx=0;exitDy=0;entryX=0.71;entryY=0.986;entryDx=0;entryDy=0;exitPerimeter=0;entryPerimeter=0;" parent="1" source="NtUWNruWv3vqtCbzeLsO-88" target="NtUWNruWv3vqtCbzeLsO-35" edge="1">
          <mxGeometry width="50" height="50" relative="1" as="geometry">
            <mxPoint x="683.5" y="397.25" as="sourcePoint" />
            <mxPoint x="734.5" y="339.25" as="targetPoint" />
          </mxGeometry>
        </mxCell>
        <mxCell id="NtUWNruWv3vqtCbzeLsO-88" value="Manuscript_No" style="ellipse;whiteSpace=wrap;html=1;" parent="1" vertex="1">
          <mxGeometry x="616" y="387" width="102" height="33" as="geometry" />
        </mxCell>
        <mxCell id="NtUWNruWv3vqtCbzeLsO-89" value="" style="endArrow=none;html=1;rounded=0;entryX=0.5;entryY=1;entryDx=0;entryDy=0;" parent="1" source="NtUWNruWv3vqtCbzeLsO-97" target="NtUWNruWv3vqtCbzeLsO-16" edge="1">
          <mxGeometry width="50" height="50" relative="1" as="geometry">
            <mxPoint x="200" y="690" as="sourcePoint" />
            <mxPoint x="200.5" y="662" as="targetPoint" />
          </mxGeometry>
        </mxCell>
        <mxCell id="NtUWNruWv3vqtCbzeLsO-90" value="Description" style="ellipse;whiteSpace=wrap;html=1;" parent="1" vertex="1">
          <mxGeometry x="73" y="890" width="83" height="30" as="geometry" />
        </mxCell>
        <mxCell id="NtUWNruWv3vqtCbzeLsO-91" value="" style="endArrow=none;html=1;rounded=0;exitX=0.6;exitY=1.007;exitDx=0;exitDy=0;exitPerimeter=0;" parent="1" source="NtUWNruWv3vqtCbzeLsO-94" target="NtUWNruWv3vqtCbzeLsO-90" edge="1">
          <mxGeometry width="50" height="50" relative="1" as="geometry">
            <mxPoint x="121" y="906" as="sourcePoint" />
            <mxPoint x="145.5" y="1195.4" as="targetPoint" />
          </mxGeometry>
        </mxCell>
        <mxCell id="NtUWNruWv3vqtCbzeLsO-92" value="" style="endArrow=none;html=1;rounded=0;exitX=0.25;exitY=1;exitDx=0;exitDy=0;" parent="1" source="NtUWNruWv3vqtCbzeLsO-94" target="NtUWNruWv3vqtCbzeLsO-93" edge="1">
          <mxGeometry width="50" height="50" relative="1" as="geometry">
            <mxPoint x="98" y="890" as="sourcePoint" />
            <mxPoint x="28" y="1038" as="targetPoint" />
          </mxGeometry>
        </mxCell>
        <mxCell id="NtUWNruWv3vqtCbzeLsO-93" value="IS code" style="ellipse;whiteSpace=wrap;html=1;" parent="1" vertex="1">
          <mxGeometry x="25" y="860" width="80" height="30" as="geometry" />
        </mxCell>
        <mxCell id="NtUWNruWv3vqtCbzeLsO-94" value="Area of Interest" style="rounded=0;whiteSpace=wrap;html=1;" parent="1" vertex="1">
          <mxGeometry x="60" y="810" width="87" height="30" as="geometry" />
        </mxCell>
        <mxCell id="NtUWNruWv3vqtCbzeLsO-95" value="Interest" style="rhombus;whiteSpace=wrap;html=1;" parent="1" vertex="1">
          <mxGeometry x="83" y="632" width="80" height="80" as="geometry" />
        </mxCell>
        <mxCell id="NtUWNruWv3vqtCbzeLsO-96" value="" style="endArrow=none;html=1;rounded=0;entryX=0.448;entryY=0.957;entryDx=0;entryDy=0;exitX=0.5;exitY=0;exitDx=0;exitDy=0;entryPerimeter=0;" parent="1" source="NtUWNruWv3vqtCbzeLsO-94" target="NtUWNruWv3vqtCbzeLsO-95" edge="1">
          <mxGeometry width="50" height="50" relative="1" as="geometry">
            <mxPoint x="163" y="862" as="sourcePoint" />
            <mxPoint x="127.5" y="712" as="targetPoint" />
          </mxGeometry>
        </mxCell>
        <mxCell id="NtUWNruWv3vqtCbzeLsO-97" value="Give" style="rhombus;whiteSpace=wrap;html=1;" parent="1" vertex="1">
          <mxGeometry x="190" y="690" width="80" height="80" as="geometry" />
        </mxCell>
        <mxCell id="NtUWNruWv3vqtCbzeLsO-98" value="" style="endArrow=none;html=1;rounded=0;entryX=0.5;entryY=1;entryDx=0;entryDy=0;exitX=0;exitY=0;exitDx=0;exitDy=0;" parent="1" source="NtUWNruWv3vqtCbzeLsO-83" target="NtUWNruWv3vqtCbzeLsO-97" edge="1">
          <mxGeometry width="50" height="50" relative="1" as="geometry">
            <mxPoint x="294" y="890" as="sourcePoint" />
            <mxPoint x="250" y="771" as="targetPoint" />
          </mxGeometry>
        </mxCell>
        <mxCell id="NtUWNruWv3vqtCbzeLsO-99" value="Type_Setting" style="rounded=0;whiteSpace=wrap;html=1;" parent="1" vertex="1">
          <mxGeometry x="216" y="190" width="87" height="30" as="geometry" />
        </mxCell>
        <mxCell id="NtUWNruWv3vqtCbzeLsO-100" value="" style="endArrow=none;html=1;rounded=0;entryX=0;entryY=0;entryDx=0;entryDy=0;exitX=1;exitY=0.5;exitDx=0;exitDy=0;" parent="1" source="NtUWNruWv3vqtCbzeLsO-101" target="NtUWNruWv3vqtCbzeLsO-35" edge="1">
          <mxGeometry width="50" height="50" relative="1" as="geometry">
            <mxPoint x="333" y="252.0000000000001" as="sourcePoint" />
            <mxPoint x="523" y="252" as="targetPoint" />
          </mxGeometry>
        </mxCell>
        <mxCell id="NtUWNruWv3vqtCbzeLsO-101" value="Format" style="rhombus;whiteSpace=wrap;html=1;" parent="1" vertex="1">
          <mxGeometry x="388" y="217" width="80" height="80" as="geometry" />
        </mxCell>
        <mxCell id="NtUWNruWv3vqtCbzeLsO-102" value="" style="endArrow=none;html=1;rounded=0;entryX=0.043;entryY=0.478;entryDx=0;entryDy=0;exitX=0.926;exitY=1.009;exitDx=0;exitDy=0;exitPerimeter=0;entryPerimeter=0;" parent="1" source="NtUWNruWv3vqtCbzeLsO-99" target="NtUWNruWv3vqtCbzeLsO-101" edge="1">
          <mxGeometry width="50" height="50" relative="1" as="geometry">
            <mxPoint x="224.5" y="197" as="sourcePoint" />
            <mxPoint x="376.5" y="252" as="targetPoint" />
          </mxGeometry>
        </mxCell>
        <mxCell id="NtUWNruWv3vqtCbzeLsO-105" value="" style="endArrow=none;html=1;rounded=0;entryX=0.711;entryY=0.934;entryDx=0;entryDy=0;exitX=0.146;exitY=-0.008;exitDx=0;exitDy=0;exitPerimeter=0;entryPerimeter=0;" parent="1" source="NtUWNruWv3vqtCbzeLsO-99" target="NtUWNruWv3vqtCbzeLsO-106" edge="1">
          <mxGeometry width="50" height="50" relative="1" as="geometry">
            <mxPoint x="176" y="190" as="sourcePoint" />
            <mxPoint x="199.5000000000001" y="147.37" as="targetPoint" />
          </mxGeometry>
        </mxCell>
        <mxCell id="NtUWNruWv3vqtCbzeLsO-106" value="Size" style="ellipse;whiteSpace=wrap;html=1;" parent="1" vertex="1">
          <mxGeometry x="157.5" y="148" width="57" height="30" as="geometry" />
        </mxCell>
        <mxCell id="NtUWNruWv3vqtCbzeLsO-107" value="" style="endArrow=none;html=1;rounded=0;entryX=0.5;entryY=1;entryDx=0;entryDy=0;" parent="1" source="NtUWNruWv3vqtCbzeLsO-99" target="NtUWNruWv3vqtCbzeLsO-108" edge="1">
          <mxGeometry width="50" height="50" relative="1" as="geometry">
            <mxPoint x="237" y="160" as="sourcePoint" />
            <mxPoint x="251.05000000000007" y="117.37" as="targetPoint" />
          </mxGeometry>
        </mxCell>
        <mxCell id="NtUWNruWv3vqtCbzeLsO-108" value="Style" style="ellipse;whiteSpace=wrap;html=1;" parent="1" vertex="1">
          <mxGeometry x="230" y="118" width="70" height="30" as="geometry" />
        </mxCell>
        <mxCell id="NtUWNruWv3vqtCbzeLsO-109" value="" style="endArrow=none;html=1;rounded=0;entryX=0.603;entryY=0.979;entryDx=0;entryDy=0;exitX=0.25;exitY=0;exitDx=0;exitDy=0;entryPerimeter=0;" parent="1" source="NtUWNruWv3vqtCbzeLsO-99" target="NtUWNruWv3vqtCbzeLsO-110" edge="1">
          <mxGeometry width="50" height="50" relative="1" as="geometry">
            <mxPoint x="192" y="178" as="sourcePoint" />
            <mxPoint x="184.05000000000007" y="105.37" as="targetPoint" />
          </mxGeometry>
        </mxCell>
        <mxCell id="NtUWNruWv3vqtCbzeLsO-110" value="Line Spacing" style="ellipse;whiteSpace=wrap;html=1;" parent="1" vertex="1">
          <mxGeometry x="152" y="98" width="87" height="30" as="geometry" />
        </mxCell>
        <mxCell id="NtUWNruWv3vqtCbzeLsO-111" value="" style="endArrow=none;html=1;rounded=0;" parent="1" source="NtUWNruWv3vqtCbzeLsO-99" target="NtUWNruWv3vqtCbzeLsO-112" edge="1">
          <mxGeometry width="50" height="50" relative="1" as="geometry">
            <mxPoint x="191.75" y="220" as="sourcePoint" />
            <mxPoint x="162.2500000000001" y="177.37" as="targetPoint" />
          </mxGeometry>
        </mxCell>
        <mxCell id="NtUWNruWv3vqtCbzeLsO-112" value="Justification" style="ellipse;whiteSpace=wrap;html=1;" parent="1" vertex="1">
          <mxGeometry x="103" y="178" width="74.25" height="30" as="geometry" />
        </mxCell>
        <mxCell id="NtUWNruWv3vqtCbzeLsO-113" value="" style="endArrow=none;html=1;rounded=0;" parent="1" edge="1">
          <mxGeometry width="50" height="50" relative="1" as="geometry">
            <mxPoint x="242" y="140.5800000000001" as="sourcePoint" />
            <mxPoint x="292" y="140.5800000000001" as="targetPoint" />
          </mxGeometry>
        </mxCell>
        <mxCell id="NtUWNruWv3vqtCbzeLsO-116" value="m" style="text;html=1;strokeColor=none;fillColor=none;align=center;verticalAlign=middle;whiteSpace=wrap;rounded=0;" parent="1" vertex="1">
          <mxGeometry x="320.5" y="210" width="60" height="30" as="geometry" />
        </mxCell>
        <mxCell id="NtUWNruWv3vqtCbzeLsO-117" value="n" style="text;html=1;strokeColor=none;fillColor=none;align=center;verticalAlign=middle;whiteSpace=wrap;rounded=0;" parent="1" vertex="1">
          <mxGeometry x="460" y="236" width="60" height="30" as="geometry" />
        </mxCell>
        <mxCell id="NtUWNruWv3vqtCbzeLsO-118" value="Record" style="rhombus;whiteSpace=wrap;html=1;" parent="1" vertex="1">
          <mxGeometry x="580" y="690" width="80" height="80" as="geometry" />
        </mxCell>
        <mxCell id="NtUWNruWv3vqtCbzeLsO-119" value="" style="endArrow=none;html=1;rounded=0;exitX=1;exitY=0;exitDx=0;exitDy=0;entryX=0.5;entryY=1;entryDx=0;entryDy=0;" parent="1" source="NtUWNruWv3vqtCbzeLsO-83" target="NtUWNruWv3vqtCbzeLsO-118" edge="1">
          <mxGeometry width="50" height="50" relative="1" as="geometry">
            <mxPoint x="572" y="828" as="sourcePoint" />
            <mxPoint x="620" y="780" as="targetPoint" />
          </mxGeometry>
        </mxCell>
        <mxCell id="NtUWNruWv3vqtCbzeLsO-120" value="" style="endArrow=none;html=1;rounded=0;entryX=0.535;entryY=0.954;entryDx=0;entryDy=0;exitX=0.061;exitY=-0.011;exitDx=0;exitDy=0;entryPerimeter=0;exitPerimeter=0;" parent="1" source="NtUWNruWv3vqtCbzeLsO-83" target="NtUWNruWv3vqtCbzeLsO-97" edge="1">
          <mxGeometry width="50" height="50" relative="1" as="geometry">
            <mxPoint x="391" y="870" as="sourcePoint" />
            <mxPoint x="240" y="770" as="targetPoint" />
          </mxGeometry>
        </mxCell>
        <mxCell id="NtUWNruWv3vqtCbzeLsO-122" value="" style="endArrow=none;html=1;rounded=0;entryX=0.813;entryY=0.761;entryDx=0;entryDy=0;entryPerimeter=0;" parent="1" edge="1">
          <mxGeometry width="50" height="50" relative="1" as="geometry">
            <mxPoint x="43.75" y="881.83" as="sourcePoint" />
            <mxPoint x="86.03999999999996" y="881.8299999999999" as="targetPoint" />
          </mxGeometry>
        </mxCell>
        <mxCell id="NtUWNruWv3vqtCbzeLsO-123" value="" style="endArrow=none;html=1;rounded=0;entryX=0.527;entryY=0.036;entryDx=0;entryDy=0;entryPerimeter=0;exitX=0.185;exitY=0.99;exitDx=0;exitDy=0;exitPerimeter=0;" parent="1" source="NtUWNruWv3vqtCbzeLsO-16" target="NtUWNruWv3vqtCbzeLsO-95" edge="1">
          <mxGeometry width="50" height="50" relative="1" as="geometry">
            <mxPoint x="150" y="580" as="sourcePoint" />
            <mxPoint x="127" y="633" as="targetPoint" />
          </mxGeometry>
        </mxCell>
        <mxCell id="NtUWNruWv3vqtCbzeLsO-124" value="n" style="text;html=1;strokeColor=none;fillColor=none;align=center;verticalAlign=middle;whiteSpace=wrap;rounded=0;" parent="1" vertex="1">
          <mxGeometry x="74.5" y="715" width="60" height="30" as="geometry" />
        </mxCell>
        <mxCell id="NtUWNruWv3vqtCbzeLsO-125" value="" style="endArrow=none;html=1;rounded=0;entryX=0.04;entryY=1.018;entryDx=0;entryDy=0;exitX=0.535;exitY=0.021;exitDx=0;exitDy=0;exitPerimeter=0;entryPerimeter=0;" parent="1" source="NtUWNruWv3vqtCbzeLsO-118" target="NtUWNruWv3vqtCbzeLsO-2" edge="1">
          <mxGeometry width="50" height="50" relative="1" as="geometry">
            <mxPoint x="625" y="696" as="sourcePoint" />
            <mxPoint x="673" y="648" as="targetPoint" />
          </mxGeometry>
        </mxCell>
        <mxCell id="NtUWNruWv3vqtCbzeLsO-126" value="" style="endArrow=none;html=1;rounded=0;exitX=0.929;exitY=-0.004;exitDx=0;exitDy=0;entryX=0.457;entryY=0.958;entryDx=0;entryDy=0;entryPerimeter=0;exitPerimeter=0;" parent="1" source="NtUWNruWv3vqtCbzeLsO-83" target="NtUWNruWv3vqtCbzeLsO-118" edge="1">
          <mxGeometry width="50" height="50" relative="1" as="geometry">
            <mxPoint x="461.5" y="870" as="sourcePoint" />
            <mxPoint x="613.5" y="770" as="targetPoint" />
          </mxGeometry>
        </mxCell>
        <mxCell id="NtUWNruWv3vqtCbzeLsO-127" value="m" style="text;html=1;strokeColor=none;fillColor=none;align=center;verticalAlign=middle;whiteSpace=wrap;rounded=0;" parent="1" vertex="1">
          <mxGeometry x="535.5" y="762" width="60" height="30" as="geometry" />
        </mxCell>
        <mxCell id="NtUWNruWv3vqtCbzeLsO-128" value="1" style="text;html=1;strokeColor=none;fillColor=none;align=center;verticalAlign=middle;whiteSpace=wrap;rounded=0;" parent="1" vertex="1">
          <mxGeometry x="200" y="650" width="60" height="30" as="geometry" />
        </mxCell>
        <mxCell id="NtUWNruWv3vqtCbzeLsO-129" value="m" style="text;html=1;strokeColor=none;fillColor=none;align=center;verticalAlign=middle;whiteSpace=wrap;rounded=0;" parent="1" vertex="1">
          <mxGeometry x="260.5" y="765" width="60" height="30" as="geometry" />
        </mxCell>
        <mxCell id="NtUWNruWv3vqtCbzeLsO-130" value="" style="endArrow=none;html=1;rounded=0;entryX=0.556;entryY=1.005;entryDx=0;entryDy=0;exitX=0.548;exitY=0.043;exitDx=0;exitDy=0;entryPerimeter=0;exitPerimeter=0;" parent="1" source="NtUWNruWv3vqtCbzeLsO-52" target="NtUWNruWv3vqtCbzeLsO-35" edge="1">
          <mxGeometry width="50" height="50" relative="1" as="geometry">
            <mxPoint x="621" y="457" as="sourcePoint" />
            <mxPoint x="658" y="347" as="targetPoint" />
          </mxGeometry>
        </mxCell>
        <mxCell id="NtUWNruWv3vqtCbzeLsO-131" value="" style="endArrow=none;html=1;rounded=0;" parent="1" edge="1">
          <mxGeometry width="50" height="50" relative="1" as="geometry">
            <mxPoint x="636" y="413" as="sourcePoint" />
            <mxPoint x="701" y="413" as="targetPoint" />
          </mxGeometry>
        </mxCell>
        <mxCell id="NtUWNruWv3vqtCbzeLsO-132" value="Select" style="rhombus;whiteSpace=wrap;html=1;" parent="1" vertex="1">
          <mxGeometry x="400" y="592" width="80" height="80" as="geometry" />
        </mxCell>
        <mxCell id="NtUWNruWv3vqtCbzeLsO-133" value="" style="endArrow=none;html=1;rounded=0;exitX=1;exitY=0.5;exitDx=0;exitDy=0;entryX=0;entryY=0.5;entryDx=0;entryDy=0;" parent="1" source="NtUWNruWv3vqtCbzeLsO-16" target="NtUWNruWv3vqtCbzeLsO-132" edge="1">
          <mxGeometry width="50" height="50" relative="1" as="geometry">
            <mxPoint x="300" y="600" as="sourcePoint" />
            <mxPoint x="350" y="550" as="targetPoint" />
          </mxGeometry>
        </mxCell>
        <mxCell id="NtUWNruWv3vqtCbzeLsO-134" value="" style="endArrow=none;html=1;rounded=0;exitX=1;exitY=0.5;exitDx=0;exitDy=0;entryX=0;entryY=0.5;entryDx=0;entryDy=0;" parent="1" source="NtUWNruWv3vqtCbzeLsO-132" target="NtUWNruWv3vqtCbzeLsO-2" edge="1">
          <mxGeometry width="50" height="50" relative="1" as="geometry">
            <mxPoint x="483" y="628" as="sourcePoint" />
            <mxPoint x="658" y="702" as="targetPoint" />
          </mxGeometry>
        </mxCell>
        <mxCell id="NtUWNruWv3vqtCbzeLsO-136" value="1" style="text;html=1;strokeColor=none;fillColor=none;align=center;verticalAlign=middle;whiteSpace=wrap;rounded=0;" parent="1" vertex="1">
          <mxGeometry x="575" y="602" width="60" height="30" as="geometry" />
        </mxCell>
        <mxCell id="NtUWNruWv3vqtCbzeLsO-137" value="m" style="text;html=1;strokeColor=none;fillColor=none;align=center;verticalAlign=middle;whiteSpace=wrap;rounded=0;" parent="1" vertex="1">
          <mxGeometry x="217" y="542" width="60" height="30" as="geometry" />
        </mxCell>
        <mxCell id="NtUWNruWv3vqtCbzeLsO-139" value="" style="ellipse;whiteSpace=wrap;html=1;" parent="1" vertex="1">
          <mxGeometry x="483.25" y="929" width="114.5" height="50" as="geometry" />
        </mxCell>
        <mxCell id="NtUWNruWv3vqtCbzeLsO-140" value="Recommendation" style="ellipse;whiteSpace=wrap;html=1;" parent="1" vertex="1">
          <mxGeometry x="485.5" y="934" width="110" height="40" as="geometry" />
        </mxCell>
        <mxCell id="NtUWNruWv3vqtCbzeLsO-218" value="users" style="rounded=0;whiteSpace=wrap;html=1;" parent="1" vertex="1">
          <mxGeometry x="-164" y="432" width="70" height="30" as="geometry" />
        </mxCell>
        <mxCell id="NtUWNruWv3vqtCbzeLsO-219" value="" style="endArrow=none;html=1;rounded=0;" parent="1" target="NtUWNruWv3vqtCbzeLsO-220" edge="1">
          <mxGeometry width="50" height="50" relative="1" as="geometry">
            <mxPoint x="-114" y="432" as="sourcePoint" />
            <mxPoint x="-64" y="382" as="targetPoint" />
          </mxGeometry>
        </mxCell>
        <mxCell id="NtUWNruWv3vqtCbzeLsO-220" value="E-mail" style="ellipse;whiteSpace=wrap;html=1;" parent="1" vertex="1">
          <mxGeometry x="-134" y="362" width="80" height="30" as="geometry" />
        </mxCell>
        <mxCell id="NtUWNruWv3vqtCbzeLsO-225" value="" style="endArrow=none;html=1;rounded=0;exitX=0;exitY=0.5;exitDx=0;exitDy=0;" parent="1" source="NtUWNruWv3vqtCbzeLsO-218" target="NtUWNruWv3vqtCbzeLsO-230" edge="1">
          <mxGeometry width="50" height="50" relative="1" as="geometry">
            <mxPoint x="-244" y="497" as="sourcePoint" />
            <mxPoint x="-194" y="447" as="targetPoint" />
          </mxGeometry>
        </mxCell>
        <mxCell id="NtUWNruWv3vqtCbzeLsO-227" value="" style="group" parent="1" vertex="1" connectable="0">
          <mxGeometry x="-262" y="420.5" width="93" height="43" as="geometry" />
        </mxCell>
        <mxCell id="NtUWNruWv3vqtCbzeLsO-228" value="" style="group" parent="NtUWNruWv3vqtCbzeLsO-227" vertex="1" connectable="0">
          <mxGeometry width="93" height="43" as="geometry" />
        </mxCell>
        <mxCell id="NtUWNruWv3vqtCbzeLsO-229" value="" style="ellipse;whiteSpace=wrap;html=1;" parent="NtUWNruWv3vqtCbzeLsO-228" vertex="1">
          <mxGeometry width="93" height="43" as="geometry" />
        </mxCell>
        <mxCell id="NtUWNruWv3vqtCbzeLsO-230" value="Affiliation" style="ellipse;whiteSpace=wrap;html=1;" parent="NtUWNruWv3vqtCbzeLsO-228" vertex="1">
          <mxGeometry x="8" y="6.5" width="80" height="30" as="geometry" />
        </mxCell>
        <mxCell id="NtUWNruWv3vqtCbzeLsO-231" value="" style="endArrow=none;html=1;rounded=0;exitX=1;exitY=0.25;exitDx=0;exitDy=0;entryX=0;entryY=0.446;entryDx=0;entryDy=0;entryPerimeter=0;" parent="1" target="NtUWNruWv3vqtCbzeLsO-233" edge="1">
          <mxGeometry width="50" height="50" relative="1" as="geometry">
            <mxPoint x="-94" y="443.5" as="sourcePoint" />
            <mxPoint x="-47" y="444" as="targetPoint" />
          </mxGeometry>
        </mxCell>
        <mxCell id="NtUWNruWv3vqtCbzeLsO-232" value="" style="endArrow=none;html=1;rounded=0;exitX=1;exitY=0.25;exitDx=0;exitDy=0;entryX=-0.012;entryY=0.537;entryDx=0;entryDy=0;entryPerimeter=0;" parent="1" target="NtUWNruWv3vqtCbzeLsO-233" edge="1">
          <mxGeometry width="50" height="50" relative="1" as="geometry">
            <mxPoint x="-94" y="447.5" as="sourcePoint" />
            <mxPoint x="-47" y="448" as="targetPoint" />
          </mxGeometry>
        </mxCell>
        <mxCell id="NtUWNruWv3vqtCbzeLsO-233" value="d" style="ellipse;whiteSpace=wrap;html=1;aspect=fixed;" parent="1" vertex="1">
          <mxGeometry x="-47" y="436.68" width="23.32" height="23.32" as="geometry" />
        </mxCell>
        <mxCell id="NtUWNruWv3vqtCbzeLsO-234" value="" style="endArrow=none;html=1;rounded=0;exitX=1;exitY=0;exitDx=0;exitDy=0;entryX=0;entryY=0.5;entryDx=0;entryDy=0;" parent="1" source="NtUWNruWv3vqtCbzeLsO-233" target="NtUWNruWv3vqtCbzeLsO-8" edge="1">
          <mxGeometry width="50" height="50" relative="1" as="geometry">
            <mxPoint x="-40" y="420" as="sourcePoint" />
            <mxPoint x="-25" y="380" as="targetPoint" />
          </mxGeometry>
        </mxCell>
        <mxCell id="NtUWNruWv3vqtCbzeLsO-235" value="" style="endArrow=none;html=1;rounded=0;exitX=1;exitY=1;exitDx=0;exitDy=0;entryX=0;entryY=0.5;entryDx=0;entryDy=0;" parent="1" source="NtUWNruWv3vqtCbzeLsO-233" target="NtUWNruWv3vqtCbzeLsO-16" edge="1">
          <mxGeometry width="50" height="50" relative="1" as="geometry">
            <mxPoint x="-89" y="450" as="sourcePoint" />
            <mxPoint x="133" y="377" as="targetPoint" />
          </mxGeometry>
        </mxCell>
        <mxCell id="GbtCfOrCpmcQIAUnwNEM-2" value="period" style="rounded=0;whiteSpace=wrap;html=1;" parent="1" vertex="1">
          <mxGeometry x="1128.28" y="602" width="70" height="30" as="geometry" />
        </mxCell>
        <mxCell id="GbtCfOrCpmcQIAUnwNEM-3" value="" style="endArrow=none;html=1;rounded=0;" parent="1" source="GbtCfOrCpmcQIAUnwNEM-2" target="GbtCfOrCpmcQIAUnwNEM-4" edge="1">
          <mxGeometry width="50" height="50" relative="1" as="geometry">
            <mxPoint x="1178.28" y="602" as="sourcePoint" />
            <mxPoint x="1228.28" y="552" as="targetPoint" />
          </mxGeometry>
        </mxCell>
        <mxCell id="GbtCfOrCpmcQIAUnwNEM-4" value="Date" style="ellipse;whiteSpace=wrap;html=1;" parent="1" vertex="1">
          <mxGeometry x="1230.28" y="588.5" width="80" height="30" as="geometry" />
        </mxCell>
        <mxCell id="GbtCfOrCpmcQIAUnwNEM-13" value="" style="endArrow=none;html=1;rounded=0;entryX=0;entryY=0.446;entryDx=0;entryDy=0;entryPerimeter=0;" parent="1" source="GbtCfOrCpmcQIAUnwNEM-2" target="GbtCfOrCpmcQIAUnwNEM-15" edge="1">
          <mxGeometry width="50" height="50" relative="1" as="geometry">
            <mxPoint x="1120.28" y="616.5" as="sourcePoint" />
            <mxPoint x="1245.28" y="614" as="targetPoint" />
          </mxGeometry>
        </mxCell>
        <mxCell id="GbtCfOrCpmcQIAUnwNEM-14" value="" style="endArrow=none;html=1;rounded=0;entryX=-0.012;entryY=0.537;entryDx=0;entryDy=0;entryPerimeter=0;exitX=-0.004;exitY=0.626;exitDx=0;exitDy=0;exitPerimeter=0;" parent="1" source="GbtCfOrCpmcQIAUnwNEM-2" target="GbtCfOrCpmcQIAUnwNEM-15" edge="1">
          <mxGeometry width="50" height="50" relative="1" as="geometry">
            <mxPoint x="1130.28" y="620.5" as="sourcePoint" />
            <mxPoint x="1245.28" y="618" as="targetPoint" />
          </mxGeometry>
        </mxCell>
        <mxCell id="GbtCfOrCpmcQIAUnwNEM-15" value="d" style="ellipse;whiteSpace=wrap;html=1;aspect=fixed;" parent="1" vertex="1">
          <mxGeometry x="1050.28" y="608.5000000000001" width="23.32" height="23.32" as="geometry" />
        </mxCell>
        <mxCell id="GbtCfOrCpmcQIAUnwNEM-17" value="" style="group" parent="1" vertex="1" connectable="0">
          <mxGeometry x="688" y="306.5" width="98" height="35.5" as="geometry" />
        </mxCell>
        <mxCell id="NtUWNruWv3vqtCbzeLsO-135" value="" style="ellipse;whiteSpace=wrap;html=1;" parent="GbtCfOrCpmcQIAUnwNEM-17" vertex="1">
          <mxGeometry width="98" height="35.5" as="geometry" />
        </mxCell>
        <mxCell id="NtUWNruWv3vqtCbzeLsO-138" value="Status" style="ellipse;whiteSpace=wrap;html=1;" parent="GbtCfOrCpmcQIAUnwNEM-17" vertex="1">
          <mxGeometry x="9" y="2.75" width="80" height="30" as="geometry" />
        </mxCell>
        <mxCell id="GbtCfOrCpmcQIAUnwNEM-18" value="" style="endArrow=none;html=1;rounded=0;exitX=0;exitY=0;exitDx=0;exitDy=0;entryX=1;entryY=0.75;entryDx=0;entryDy=0;" parent="1" source="GbtCfOrCpmcQIAUnwNEM-15" target="NtUWNruWv3vqtCbzeLsO-35" edge="1">
          <mxGeometry width="50" height="50" relative="1" as="geometry">
            <mxPoint x="998" y="490.5" as="sourcePoint" />
            <mxPoint x="980" y="444.5" as="targetPoint" />
          </mxGeometry>
        </mxCell>
        <mxCell id="GbtCfOrCpmcQIAUnwNEM-19" value="" style="endArrow=none;html=1;rounded=0;exitX=0;exitY=0.5;exitDx=0;exitDy=0;entryX=1;entryY=0.5;entryDx=0;entryDy=0;" parent="1" source="GbtCfOrCpmcQIAUnwNEM-15" target="NtUWNruWv3vqtCbzeLsO-83" edge="1">
          <mxGeometry width="50" height="50" relative="1" as="geometry">
            <mxPoint x="1480" y="805" as="sourcePoint" />
            <mxPoint x="905" y="545" as="targetPoint" />
          </mxGeometry>
        </mxCell>
        <mxCell id="1FLILuH23P1DLxQ2TV-P-1" value="Journal staff" style="rounded=0;whiteSpace=wrap;html=1;" parent="1" vertex="1">
          <mxGeometry x="-500" y="552" width="88" height="38" as="geometry" />
        </mxCell>
        <mxCell id="1FLILuH23P1DLxQ2TV-P-2" value="" style="endArrow=none;html=1;rounded=0;entryX=0;entryY=0.446;entryDx=0;entryDy=0;entryPerimeter=0;" parent="1" source="1FLILuH23P1DLxQ2TV-P-1" target="1FLILuH23P1DLxQ2TV-P-4" edge="1">
          <mxGeometry width="50" height="50" relative="1" as="geometry">
            <mxPoint x="-321.72" y="566.5" as="sourcePoint" />
            <mxPoint x="-196.72000000000003" y="564" as="targetPoint" />
          </mxGeometry>
        </mxCell>
        <mxCell id="1FLILuH23P1DLxQ2TV-P-3" value="" style="endArrow=none;html=1;rounded=0;entryX=-0.012;entryY=0.537;entryDx=0;entryDy=0;entryPerimeter=0;" parent="1" target="1FLILuH23P1DLxQ2TV-P-4" edge="1">
          <mxGeometry width="50" height="50" relative="1" as="geometry">
            <mxPoint x="-411" y="571" as="sourcePoint" />
            <mxPoint x="-196.72000000000003" y="568" as="targetPoint" />
          </mxGeometry>
        </mxCell>
        <mxCell id="1FLILuH23P1DLxQ2TV-P-4" value="d" style="ellipse;whiteSpace=wrap;html=1;aspect=fixed;" parent="1" vertex="1">
          <mxGeometry x="-391.72" y="558.5000000000001" width="23.32" height="23.32" as="geometry" />
        </mxCell>
        <mxCell id="1FLILuH23P1DLxQ2TV-P-6" value="" style="endArrow=none;html=1;rounded=0;exitX=0.11;exitY=0.029;exitDx=0;exitDy=0;exitPerimeter=0;" parent="1" source="1FLILuH23P1DLxQ2TV-P-1" edge="1">
          <mxGeometry width="50" height="50" relative="1" as="geometry">
            <mxPoint x="-474" y="550" as="sourcePoint" />
            <mxPoint x="-490" y="529" as="targetPoint" />
          </mxGeometry>
        </mxCell>
        <mxCell id="1FLILuH23P1DLxQ2TV-P-7" value="Name" style="ellipse;whiteSpace=wrap;html=1;" parent="1" vertex="1">
          <mxGeometry x="-531" y="500" width="60" height="30" as="geometry" />
        </mxCell>
        <mxCell id="1FLILuH23P1DLxQ2TV-P-8" value="" style="endArrow=none;html=1;rounded=0;exitX=1;exitY=0;exitDx=0;exitDy=0;entryX=0.25;entryY=1;entryDx=0;entryDy=0;" parent="1" source="1FLILuH23P1DLxQ2TV-P-4" target="NtUWNruWv3vqtCbzeLsO-218" edge="1">
          <mxGeometry width="50" height="50" relative="1" as="geometry">
            <mxPoint x="-321" y="579" as="sourcePoint" />
            <mxPoint x="-154" y="680" as="targetPoint" />
          </mxGeometry>
        </mxCell>
        <mxCell id="tuAjjavgtcC6_Hm82l9z-1" value="" style="endArrow=none;html=1;rounded=0;" parent="1" source="GbtCfOrCpmcQIAUnwNEM-2" target="tuAjjavgtcC6_Hm82l9z-2" edge="1">
          <mxGeometry width="50" height="50" relative="1" as="geometry">
            <mxPoint x="1208" y="654.5" as="sourcePoint" />
            <mxPoint x="1238.28" y="593.5" as="targetPoint" />
          </mxGeometry>
        </mxCell>
        <mxCell id="tuAjjavgtcC6_Hm82l9z-2" value="PID" style="ellipse;whiteSpace=wrap;html=1;" parent="1" vertex="1">
          <mxGeometry x="1240.28" y="630" width="80" height="30" as="geometry" />
        </mxCell>
        <mxCell id="FPx4_ojAydc7Qj8DMkKw-1" value="" style="endArrow=none;html=1;rounded=0;" parent="1" edge="1">
          <mxGeometry width="50" height="50" relative="1" as="geometry">
            <mxPoint x="1247.78" y="651.17" as="sourcePoint" />
            <mxPoint x="1312.78" y="651.17" as="targetPoint" />
          </mxGeometry>
        </mxCell>
        <mxCell id="FPx4_ojAydc7Qj8DMkKw-2" value="" style="endArrow=none;html=1;rounded=0;exitX=0;exitY=0.5;exitDx=0;exitDy=0;entryX=1;entryY=1;entryDx=0;entryDy=0;" parent="1" source="1FLILuH23P1DLxQ2TV-P-1" target="FPx4_ojAydc7Qj8DMkKw-3" edge="1">
          <mxGeometry width="50" height="50" relative="1" as="geometry">
            <mxPoint x="-559" y="590" as="sourcePoint" />
            <mxPoint x="-559" y="566" as="targetPoint" />
          </mxGeometry>
        </mxCell>
        <mxCell id="FPx4_ojAydc7Qj8DMkKw-3" value="SID" style="ellipse;whiteSpace=wrap;html=1;" parent="1" vertex="1">
          <mxGeometry x="-600" y="537" width="60" height="30" as="geometry" />
        </mxCell>
        <mxCell id="FPx4_ojAydc7Qj8DMkKw-4" value="" style="endArrow=none;html=1;rounded=0;" parent="1" edge="1">
          <mxGeometry width="50" height="50" relative="1" as="geometry">
            <mxPoint x="-595" y="558.5000000000001" as="sourcePoint" />
            <mxPoint x="-545" y="558.5000000000001" as="targetPoint" />
          </mxGeometry>
        </mxCell>
        <mxCell id="FPx4_ojAydc7Qj8DMkKw-6" value="" style="endArrow=none;html=1;rounded=0;exitX=0.061;exitY=0.687;exitDx=0;exitDy=0;exitPerimeter=0;" parent="1" edge="1">
          <mxGeometry width="50" height="50" relative="1" as="geometry">
            <mxPoint x="487.21450000000004" y="914.61" as="sourcePoint" />
            <mxPoint x="529" y="914" as="targetPoint" />
          </mxGeometry>
        </mxCell>
        <mxCell id="FPx4_ojAydc7Qj8DMkKw-7" value="" style="endArrow=none;html=1;rounded=0;entryX=0.813;entryY=0.761;entryDx=0;entryDy=0;entryPerimeter=0;" parent="1" edge="1">
          <mxGeometry width="50" height="50" relative="1" as="geometry">
            <mxPoint x="154.70999999999998" y="500.2" as="sourcePoint" />
            <mxPoint x="196.99999999999994" y="500.2" as="targetPoint" />
          </mxGeometry>
        </mxCell>
        <mxCell id="FPx4_ojAydc7Qj8DMkKw-8" value="" style="endArrow=none;html=1;rounded=0;entryX=0.94;entryY=0.717;entryDx=0;entryDy=0;entryPerimeter=0;" parent="1" edge="1">
          <mxGeometry width="50" height="50" relative="1" as="geometry">
            <mxPoint x="128.99999999999997" y="324.75" as="sourcePoint" />
            <mxPoint x="199" y="323.51" as="targetPoint" />
          </mxGeometry>
        </mxCell>
        <mxCell id="FPx4_ojAydc7Qj8DMkKw-9" value="" style="endArrow=none;html=1;rounded=0;" parent="1" edge="1">
          <mxGeometry width="50" height="50" relative="1" as="geometry">
            <mxPoint x="-124.00000000000003" y="384.24" as="sourcePoint" />
            <mxPoint x="-60" y="383" as="targetPoint" />
          </mxGeometry>
        </mxCell>
        <mxCell id="bZz0Q9a36Tx4sQj7c_I8-1" value="" style="shape=requiredInterface;html=1;verticalLabelPosition=bottom;sketch=0;direction=east;" parent="1" vertex="1">
          <mxGeometry x="-321" y="525.5" width="20" height="20" as="geometry" />
        </mxCell>
        <mxCell id="bZz0Q9a36Tx4sQj7c_I8-4" value="" style="shape=requiredInterface;html=1;verticalLabelPosition=bottom;sketch=0;direction=south;" parent="1" vertex="1">
          <mxGeometry x="-390.4" y="690" width="20" height="20" as="geometry" />
        </mxCell>
        <mxCell id="bZz0Q9a36Tx4sQj7c_I8-5" value="" style="shape=requiredInterface;html=1;verticalLabelPosition=bottom;sketch=0;direction=east;" parent="1" vertex="1">
          <mxGeometry x="31" y="489" width="20" height="20" as="geometry" />
        </mxCell>
        <mxCell id="bZz0Q9a36Tx4sQj7c_I8-6" value="" style="shape=requiredInterface;html=1;verticalLabelPosition=bottom;sketch=0;direction=east;" parent="1" vertex="1">
          <mxGeometry x="40" y="392" width="20" height="20" as="geometry" />
        </mxCell>
        <mxCell id="bZz0Q9a36Tx4sQj7c_I8-8" value="" style="shape=requiredInterface;html=1;verticalLabelPosition=bottom;sketch=0;direction=west;" parent="1" vertex="1">
          <mxGeometry x="980" y="633" width="20" height="20" as="geometry" />
        </mxCell>
        <mxCell id="bZz0Q9a36Tx4sQj7c_I8-9" value="" style="shape=requiredInterface;html=1;verticalLabelPosition=bottom;sketch=0;direction=west;" parent="1" vertex="1">
          <mxGeometry x="990" y="564" width="20" height="20" as="geometry" />
        </mxCell>
      </root>
    </mxGraphModel>
  </diagram>
  <diagram id="SM0Gj8mWvvbaUKPo51iq" name="Schema">
    <mxGraphModel dx="823" dy="484" grid="1" gridSize="10" guides="1" tooltips="1" connect="1" arrows="1" fold="1" page="1" pageScale="1" pageWidth="850" pageHeight="1100" math="0" shadow="0">
      <root>
        <mxCell id="0" />
        <mxCell id="1" parent="0" />
        <mxCell id="t8ltyQvXlLXqq-6Ybh9R-2" value="Authors" style="text;html=1;strokeColor=none;fillColor=none;align=center;verticalAlign=middle;whiteSpace=wrap;rounded=0;" parent="1" vertex="1">
          <mxGeometry x="152" y="22" width="60" height="20" as="geometry" />
        </mxCell>
        <mxCell id="t8ltyQvXlLXqq-6Ybh9R-7" value="Manuscript" style="text;html=1;strokeColor=none;fillColor=none;align=center;verticalAlign=middle;whiteSpace=wrap;rounded=0;" parent="1" vertex="1">
          <mxGeometry x="159" y="90" width="60" height="22" as="geometry" />
        </mxCell>
        <mxCell id="iw6zrM3eUQzWbG9dG0wD-2" value="Editor" style="text;html=1;strokeColor=none;fillColor=none;align=center;verticalAlign=middle;whiteSpace=wrap;rounded=0;" parent="1" vertex="1">
          <mxGeometry x="140" y="224" width="40" height="20" as="geometry" />
        </mxCell>
        <mxCell id="J4Xdooky3kdaFqdzsUPQ-2" value="Reviewer" style="text;html=1;strokeColor=none;fillColor=none;align=center;verticalAlign=middle;whiteSpace=wrap;rounded=0;" parent="1" vertex="1">
          <mxGeometry x="148" y="300" width="60" height="20" as="geometry" />
        </mxCell>
        <mxCell id="fVVpYVbkKeoXAS_JzS5t-1" value="" style="rounded=0;whiteSpace=wrap;html=1;fillColor=#ffe6cc;strokeColor=#d79b00;" parent="1" vertex="1">
          <mxGeometry x="600" y="80" width="50" height="20" as="geometry" />
        </mxCell>
        <mxCell id="fVVpYVbkKeoXAS_JzS5t-2" value="Primary key" style="text;html=1;strokeColor=none;fillColor=none;align=center;verticalAlign=middle;whiteSpace=wrap;rounded=0;" parent="1" vertex="1">
          <mxGeometry x="590" y="50" width="70" height="30" as="geometry" />
        </mxCell>
        <mxCell id="2wgX9nU-572Spf2Jyg3V-5" value="Area of Interest" style="text;html=1;strokeColor=none;fillColor=none;align=center;verticalAlign=middle;whiteSpace=wrap;rounded=0;" parent="1" vertex="1">
          <mxGeometry x="138" y="688" width="90" height="13" as="geometry" />
        </mxCell>
        <mxCell id="v4p2PRkcCsHXTGpK_eqg-14" value="" style="group" parent="1" vertex="1" connectable="0">
          <mxGeometry x="140" y="704" width="130" height="17" as="geometry" />
        </mxCell>
        <mxCell id="2wgX9nU-572Spf2Jyg3V-1" value="IS_code" style="rounded=0;whiteSpace=wrap;html=1;fillColor=#ffe6cc;strokeColor=#000000;" parent="v4p2PRkcCsHXTGpK_eqg-14" vertex="1">
          <mxGeometry width="60" height="17" as="geometry" />
        </mxCell>
        <mxCell id="2wgX9nU-572Spf2Jyg3V-2" value="Description" style="rounded=0;whiteSpace=wrap;html=1;" parent="v4p2PRkcCsHXTGpK_eqg-14" vertex="1">
          <mxGeometry x="60" width="70" height="17" as="geometry" />
        </mxCell>
        <mxCell id="D1c6xKFyI0NcjHASKpTI-2" value="Feedback" style="text;html=1;strokeColor=none;fillColor=none;align=center;verticalAlign=middle;whiteSpace=wrap;rounded=0;" parent="1" vertex="1">
          <mxGeometry x="136" y="830" width="60" height="19" as="geometry" />
        </mxCell>
        <mxCell id="D1c6xKFyI0NcjHASKpTI-4" value="Recommendation" style="rounded=0;whiteSpace=wrap;html=1;" parent="1" vertex="1">
          <mxGeometry x="202" y="849" width="98" height="21" as="geometry" />
        </mxCell>
        <mxCell id="oq-t_zAnfIjYvu5-7F0E-1" style="edgeStyle=orthogonalEdgeStyle;rounded=0;orthogonalLoop=1;jettySize=auto;html=1;entryX=0.25;entryY=1;entryDx=0;entryDy=0;" parent="1" source="Up1PiN_4zC_6Lle1-YBX-10" target="m-pAInZp5DkNOzlYMc72-1" edge="1">
          <mxGeometry relative="1" as="geometry">
            <Array as="points">
              <mxPoint x="740" y="890" />
              <mxPoint x="70" y="890" />
              <mxPoint x="70" y="370" />
              <mxPoint x="149" y="370" />
            </Array>
          </mxGeometry>
        </mxCell>
        <mxCell id="oq-t_zAnfIjYvu5-7F0E-2" style="edgeStyle=orthogonalEdgeStyle;rounded=0;orthogonalLoop=1;jettySize=auto;html=1;entryX=0.5;entryY=1;entryDx=0;entryDy=0;exitX=0.558;exitY=1.029;exitDx=0;exitDy=0;exitPerimeter=0;" parent="1" source="v6rrlkTF3PXp6JnNTouC-2" target="fSmVtHBfYypvOSx5p_jH-1" edge="1">
          <mxGeometry relative="1" as="geometry">
            <Array as="points">
              <mxPoint x="790" y="910" />
              <mxPoint x="60" y="910" />
              <mxPoint x="60" y="290" />
              <mxPoint x="160" y="290" />
            </Array>
          </mxGeometry>
        </mxCell>
        <mxCell id="Up1PiN_4zC_6Lle1-YBX-10" value="RID" style="rounded=0;whiteSpace=wrap;html=1;fillColor=#d5e8d4;strokeColor=#000000;" parent="1" vertex="1">
          <mxGeometry x="728" y="849" width="40" height="21" as="geometry" />
        </mxCell>
        <mxCell id="t8ltyQvXlLXqq-6Ybh9R-1" value="Name" style="rounded=0;whiteSpace=wrap;html=1;" parent="1" vertex="1">
          <mxGeometry x="192" y="42" width="51" height="18" as="geometry" />
        </mxCell>
        <mxCell id="t8ltyQvXlLXqq-6Ybh9R-3" value="Mailing address" style="rounded=0;whiteSpace=wrap;html=1;" parent="1" vertex="1">
          <mxGeometry x="242" y="42" width="100" height="18" as="geometry" />
        </mxCell>
        <mxCell id="t8ltyQvXlLXqq-6Ybh9R-4" value="E-mail&amp;nbsp;" style="rounded=0;whiteSpace=wrap;html=1;" parent="1" vertex="1">
          <mxGeometry x="342" y="42" width="60" height="18" as="geometry" />
        </mxCell>
        <mxCell id="t8ltyQvXlLXqq-6Ybh9R-5" value="Affiliation" style="rounded=0;whiteSpace=wrap;html=1;" parent="1" vertex="1">
          <mxGeometry x="402" y="42" width="60" height="18" as="geometry" />
        </mxCell>
        <mxCell id="ay-K8iFjh20dDPpPTzac-1" value="SID" style="rounded=0;whiteSpace=wrap;html=1;fillColor=#ffe6cc;strokeColor=#000000;" parent="1" vertex="1">
          <mxGeometry x="141" y="42" width="51" height="18" as="geometry" />
        </mxCell>
        <mxCell id="iw6zrM3eUQzWbG9dG0wD-4" value="Years of Experience" style="rounded=0;whiteSpace=wrap;html=1;" parent="1" vertex="1">
          <mxGeometry x="300" y="243" width="120" height="20" as="geometry" />
        </mxCell>
        <mxCell id="v4p2PRkcCsHXTGpK_eqg-8" value="Name" style="rounded=0;whiteSpace=wrap;html=1;" parent="1" vertex="1">
          <mxGeometry x="180" y="243" width="50" height="20" as="geometry" />
        </mxCell>
        <mxCell id="v4p2PRkcCsHXTGpK_eqg-9" value="Phone No" style="rounded=0;whiteSpace=wrap;html=1;" parent="1" vertex="1">
          <mxGeometry x="230" y="243" width="70" height="20" as="geometry" />
        </mxCell>
        <mxCell id="fSmVtHBfYypvOSx5p_jH-1" value="SID" style="rounded=0;whiteSpace=wrap;html=1;fillColor=#ffe6cc;strokeColor=#000000;" parent="1" vertex="1">
          <mxGeometry x="140" y="243" width="40" height="20" as="geometry" />
        </mxCell>
        <mxCell id="J4Xdooky3kdaFqdzsUPQ-1" value="Rev_No" style="rounded=0;whiteSpace=wrap;html=1;container=0;" parent="1" vertex="1">
          <mxGeometry x="179" y="320" width="60" height="20" as="geometry" />
        </mxCell>
        <mxCell id="J4Xdooky3kdaFqdzsUPQ-3" value="Name" style="rounded=0;whiteSpace=wrap;html=1;container=0;" parent="1" vertex="1">
          <mxGeometry x="239" y="320" width="70" height="20" as="geometry" />
        </mxCell>
        <mxCell id="J4Xdooky3kdaFqdzsUPQ-4" value="Email&amp;nbsp;" style="rounded=0;whiteSpace=wrap;html=1;container=0;" parent="1" vertex="1">
          <mxGeometry x="309" y="320" width="50" height="20" as="geometry" />
        </mxCell>
        <mxCell id="J4Xdooky3kdaFqdzsUPQ-5" value="Affiliation" style="rounded=0;whiteSpace=wrap;html=1;container=0;" parent="1" vertex="1">
          <mxGeometry x="359" y="320" width="61" height="20" as="geometry" />
        </mxCell>
        <mxCell id="m-pAInZp5DkNOzlYMc72-1" value="SID" style="rounded=0;whiteSpace=wrap;html=1;fillColor=#ffe6cc;strokeColor=#000000;container=0;" parent="1" vertex="1">
          <mxGeometry x="139" y="320" width="40" height="20" as="geometry" />
        </mxCell>
        <mxCell id="v4p2PRkcCsHXTGpK_eqg-3" value="Title" style="rounded=0;whiteSpace=wrap;html=1;" parent="1" vertex="1">
          <mxGeometry x="180" y="110" width="39" height="20" as="geometry" />
        </mxCell>
        <mxCell id="v4p2PRkcCsHXTGpK_eqg-4" value="Date" style="rounded=0;whiteSpace=wrap;html=1;" parent="1" vertex="1">
          <mxGeometry x="219" y="110" width="41" height="20" as="geometry" />
        </mxCell>
        <mxCell id="v4p2PRkcCsHXTGpK_eqg-5" value="Status" style="rounded=0;whiteSpace=wrap;html=1;" parent="1" vertex="1">
          <mxGeometry x="260" y="110" width="40" height="20" as="geometry" />
        </mxCell>
        <mxCell id="t8ltyQvXlLXqq-6Ybh9R-10" value="Manuscript_No" style="rounded=0;whiteSpace=wrap;html=1;" parent="1" vertex="1">
          <mxGeometry x="300" y="110" width="91" height="20" as="geometry" />
        </mxCell>
        <mxCell id="9nEADAn8Ts8ZTTyXgxT9-1" value="PID" style="rounded=0;whiteSpace=wrap;html=1;fillColor=#ffe6cc;strokeColor=#000000;" parent="1" vertex="1">
          <mxGeometry x="141" y="110" width="39" height="20" as="geometry" />
        </mxCell>
        <mxCell id="D1c6xKFyI0NcjHASKpTI-5" value="Contribution_rating" style="rounded=0;whiteSpace=wrap;html=1;" parent="1" vertex="1">
          <mxGeometry x="312" y="849" width="110" height="21" as="geometry" />
        </mxCell>
        <mxCell id="FDhCDZ86hYz1hV4EVOj4-2" value="Clarity_rating" style="rounded=0;whiteSpace=wrap;html=1;" parent="1" vertex="1">
          <mxGeometry x="520" y="849" width="80" height="21" as="geometry" />
        </mxCell>
        <mxCell id="v4p2PRkcCsHXTGpK_eqg-1" value="Appropriateness_rating" style="rounded=0;whiteSpace=wrap;html=1;" parent="1" vertex="1">
          <mxGeometry x="600" y="849" width="130" height="21" as="geometry" />
        </mxCell>
        <mxCell id="lXzKWAxVVw74U6fO5c70-1" value="ID" style="rounded=0;whiteSpace=wrap;html=1;" parent="1" vertex="1">
          <mxGeometry x="136" y="849" width="30" height="21" as="geometry" />
        </mxCell>
        <mxCell id="lXzKWAxVVw74U6fO5c70-2" value="Date" style="rounded=0;whiteSpace=wrap;html=1;" parent="1" vertex="1">
          <mxGeometry x="166" y="849" width="36" height="21" as="geometry" />
        </mxCell>
        <mxCell id="uznAqEto4I8pPuofA0Oq-8" value="PID" style="rounded=0;whiteSpace=wrap;html=1;fillColor=#ffe6cc;strokeColor=#000000;" parent="1" vertex="1">
          <mxGeometry x="106" y="849" width="30" height="21" as="geometry" />
        </mxCell>
        <mxCell id="8UAe0z0TXy4RQqIp78hy-2" value="Note: Using normalisation with option B" style="text;html=1;strokeColor=none;fillColor=none;align=center;verticalAlign=middle;whiteSpace=wrap;rounded=0;" parent="1" vertex="1">
          <mxGeometry x="532" y="280" width="228" height="30" as="geometry" />
        </mxCell>
        <mxCell id="RvlU61iJ-qzPUbAIobnO-1" value="" style="rounded=0;whiteSpace=wrap;html=1;fillColor=#d5e8d4;strokeColor=#82b366;" parent="1" vertex="1">
          <mxGeometry x="680" y="80" width="50" height="20" as="geometry" />
        </mxCell>
        <mxCell id="RvlU61iJ-qzPUbAIobnO-2" value="Foreign Key" style="text;html=1;strokeColor=none;fillColor=none;align=center;verticalAlign=middle;whiteSpace=wrap;rounded=0;" parent="1" vertex="1">
          <mxGeometry x="670" y="50" width="70" height="30" as="geometry" />
        </mxCell>
        <mxCell id="lfpOb9zHiYbPXTsYWy1K-2" style="edgeStyle=orthogonalEdgeStyle;rounded=0;orthogonalLoop=1;jettySize=auto;html=1;entryX=0.25;entryY=1;entryDx=0;entryDy=0;" parent="1" source="WiRfHzIbCKld28Ah8GvK-1" target="9nEADAn8Ts8ZTTyXgxT9-1" edge="1">
          <mxGeometry relative="1" as="geometry">
            <Array as="points">
              <mxPoint x="203" y="210" />
              <mxPoint x="120" y="210" />
              <mxPoint x="120" y="150" />
              <mxPoint x="151" y="150" />
            </Array>
          </mxGeometry>
        </mxCell>
        <mxCell id="WiRfHzIbCKld28Ah8GvK-1" value="PID" style="rounded=0;whiteSpace=wrap;html=1;fillColor=#d5e8d4;strokeColor=#000000;" parent="1" vertex="1">
          <mxGeometry x="183" y="175" width="39" height="20" as="geometry" />
        </mxCell>
        <mxCell id="lfpOb9zHiYbPXTsYWy1K-1" style="edgeStyle=orthogonalEdgeStyle;rounded=0;orthogonalLoop=1;jettySize=auto;html=1;entryX=0.411;entryY=1.033;entryDx=0;entryDy=0;entryPerimeter=0;" parent="1" source="WiRfHzIbCKld28Ah8GvK-2" target="ay-K8iFjh20dDPpPTzac-1" edge="1">
          <mxGeometry relative="1" as="geometry">
            <Array as="points">
              <mxPoint x="163" y="200" />
              <mxPoint x="110" y="200" />
              <mxPoint x="110" y="80" />
              <mxPoint x="162" y="80" />
            </Array>
          </mxGeometry>
        </mxCell>
        <mxCell id="WiRfHzIbCKld28Ah8GvK-2" value="SID" style="rounded=0;whiteSpace=wrap;html=1;fillColor=#d5e8d4;strokeColor=#000000;" parent="1" vertex="1">
          <mxGeometry x="144" y="175" width="39" height="20" as="geometry" />
        </mxCell>
        <mxCell id="WiRfHzIbCKld28Ah8GvK-3" value="Submit" style="text;html=1;strokeColor=none;fillColor=none;align=center;verticalAlign=middle;whiteSpace=wrap;rounded=0;" parent="1" vertex="1">
          <mxGeometry x="152" y="160" width="43" height="15" as="geometry" />
        </mxCell>
        <mxCell id="m-mX2cokAUFYEgwXrenu-1" style="edgeStyle=orthogonalEdgeStyle;rounded=0;orthogonalLoop=1;jettySize=auto;html=1;entryX=0.25;entryY=1;entryDx=0;entryDy=0;" parent="1" source="eo62JiM8RtwJ1K0yEI9I-1" edge="1">
          <mxGeometry relative="1" as="geometry">
            <Array as="points">
              <mxPoint x="160" y="580" />
              <mxPoint x="120" y="580" />
              <mxPoint x="120" y="525" />
              <mxPoint x="156" y="525" />
            </Array>
            <mxPoint x="156" y="500" as="targetPoint" />
          </mxGeometry>
        </mxCell>
        <mxCell id="eo62JiM8RtwJ1K0yEI9I-1" value="Style" style="rounded=0;whiteSpace=wrap;html=1;fillColor=#d5e8d4;strokeColor=#000000;" parent="1" vertex="1">
          <mxGeometry x="140" y="550" width="40" height="22" as="geometry" />
        </mxCell>
        <mxCell id="m-mX2cokAUFYEgwXrenu-2" style="edgeStyle=orthogonalEdgeStyle;rounded=0;orthogonalLoop=1;jettySize=auto;html=1;entryX=0.5;entryY=1;entryDx=0;entryDy=0;" parent="1" source="eo62JiM8RtwJ1K0yEI9I-2" target="9nEADAn8Ts8ZTTyXgxT9-1" edge="1">
          <mxGeometry relative="1" as="geometry">
            <Array as="points">
              <mxPoint x="200" y="590" />
              <mxPoint x="100" y="590" />
              <mxPoint x="100" y="160" />
              <mxPoint x="161" y="160" />
            </Array>
          </mxGeometry>
        </mxCell>
        <mxCell id="eo62JiM8RtwJ1K0yEI9I-2" value="PID" style="rounded=0;whiteSpace=wrap;html=1;fillColor=#d5e8d4;strokeColor=#000000;" parent="1" vertex="1">
          <mxGeometry x="180" y="550" width="40" height="22" as="geometry" />
        </mxCell>
        <mxCell id="VOvORLzMY2s4n4gcydo8-1" value="Format" style="text;html=1;strokeColor=none;fillColor=none;align=center;verticalAlign=middle;whiteSpace=wrap;rounded=0;" parent="1" vertex="1">
          <mxGeometry x="138" y="536" width="51.5" height="10" as="geometry" />
        </mxCell>
        <mxCell id="gzwkekrI82JIbQvEv4Da-2" value="Issue" style="text;html=1;strokeColor=none;fillColor=none;align=center;verticalAlign=middle;whiteSpace=wrap;rounded=0;" parent="1" vertex="1">
          <mxGeometry x="140" y="609" width="50" height="20" as="geometry" />
        </mxCell>
        <mxCell id="Ya9oFmfxPuWLRYh9-Zvw-2" value="" style="group" parent="1" vertex="1" connectable="0">
          <mxGeometry x="150" y="629" width="290" height="17" as="geometry" />
        </mxCell>
        <mxCell id="gzwkekrI82JIbQvEv4Da-3" value="Pub_year" style="rounded=0;whiteSpace=wrap;html=1;" parent="Ya9oFmfxPuWLRYh9-Zvw-2" vertex="1">
          <mxGeometry x="50" width="70" height="17" as="geometry" />
        </mxCell>
        <mxCell id="gzwkekrI82JIbQvEv4Da-4" value="Volume" style="rounded=0;whiteSpace=wrap;html=1;" parent="Ya9oFmfxPuWLRYh9-Zvw-2" vertex="1">
          <mxGeometry x="120" width="60" height="17" as="geometry" />
        </mxCell>
        <mxCell id="gzwkekrI82JIbQvEv4Da-5" value="Publication_period" style="rounded=0;whiteSpace=wrap;html=1;" parent="Ya9oFmfxPuWLRYh9-Zvw-2" vertex="1">
          <mxGeometry x="180" width="110" height="17" as="geometry" />
        </mxCell>
        <mxCell id="fWkMFJsi__b7D8ZKnNV2-1" value="Issue_No" style="rounded=0;whiteSpace=wrap;html=1;fillColor=#ffe6cc;strokeColor=#000000;" parent="Ya9oFmfxPuWLRYh9-Zvw-2" vertex="1">
          <mxGeometry x="-10" width="60" height="17" as="geometry" />
        </mxCell>
        <mxCell id="SWWLhCR4T1oYjyVw-aaA-3" style="edgeStyle=orthogonalEdgeStyle;rounded=0;orthogonalLoop=1;jettySize=auto;html=1;entryX=0.5;entryY=1;entryDx=0;entryDy=0;" parent="1" source="6TerCaW1pB615SaotXav-1" target="fWkMFJsi__b7D8ZKnNV2-1" edge="1">
          <mxGeometry relative="1" as="geometry">
            <Array as="points">
              <mxPoint x="421" y="160" />
              <mxPoint x="500" y="160" />
              <mxPoint x="500" y="666" />
              <mxPoint x="170" y="666" />
            </Array>
          </mxGeometry>
        </mxCell>
        <mxCell id="6TerCaW1pB615SaotXav-1" value="Issue_No" style="rounded=0;whiteSpace=wrap;html=1;fillColor=#d5e8d4;strokeColor=#000000;" parent="1" vertex="1">
          <mxGeometry x="391" y="110" width="60" height="20" as="geometry" />
        </mxCell>
        <mxCell id="K3RUoJSDGiagz0KxnxNY-2" style="edgeStyle=orthogonalEdgeStyle;rounded=0;orthogonalLoop=1;jettySize=auto;html=1;entryX=0.75;entryY=1;entryDx=0;entryDy=0;" parent="1" source="dwXWCXyXAuCXXoSLkT9J-1" target="9nEADAn8Ts8ZTTyXgxT9-1" edge="1">
          <mxGeometry relative="1" as="geometry">
            <Array as="points">
              <mxPoint x="200" y="430" />
              <mxPoint x="80" y="430" />
              <mxPoint x="80" y="150" />
              <mxPoint x="170" y="150" />
            </Array>
          </mxGeometry>
        </mxCell>
        <mxCell id="dwXWCXyXAuCXXoSLkT9J-1" value="PID" style="rounded=0;whiteSpace=wrap;html=1;container=0;fillColor=#d5e8d4;strokeColor=#000000;" parent="1" vertex="1">
          <mxGeometry x="179" y="391" width="41" height="20" as="geometry" />
        </mxCell>
        <mxCell id="K3RUoJSDGiagz0KxnxNY-1" style="edgeStyle=orthogonalEdgeStyle;rounded=0;orthogonalLoop=1;jettySize=auto;html=1;entryX=0.5;entryY=1;entryDx=0;entryDy=0;" parent="1" source="dwXWCXyXAuCXXoSLkT9J-2" target="m-pAInZp5DkNOzlYMc72-1" edge="1">
          <mxGeometry relative="1" as="geometry">
            <Array as="points">
              <mxPoint x="159" y="420" />
              <mxPoint x="110" y="420" />
              <mxPoint x="110" y="360" />
              <mxPoint x="159" y="360" />
            </Array>
          </mxGeometry>
        </mxCell>
        <mxCell id="dwXWCXyXAuCXXoSLkT9J-2" value="SID" style="rounded=0;whiteSpace=wrap;html=1;fillColor=#d5e8d4;strokeColor=#000000;container=0;" parent="1" vertex="1">
          <mxGeometry x="139" y="391" width="40" height="20" as="geometry" />
        </mxCell>
        <mxCell id="dwXWCXyXAuCXXoSLkT9J-3" value="Review" style="text;html=1;strokeColor=none;fillColor=none;align=center;verticalAlign=middle;whiteSpace=wrap;rounded=0;" parent="1" vertex="1">
          <mxGeometry x="135" y="376" width="52" height="11" as="geometry" />
        </mxCell>
        <mxCell id="SWWLhCR4T1oYjyVw-aaA-2" style="edgeStyle=orthogonalEdgeStyle;rounded=0;orthogonalLoop=1;jettySize=auto;html=1;entryX=0.25;entryY=1;entryDx=0;entryDy=0;" parent="1" source="SWWLhCR4T1oYjyVw-aaA-1" target="fSmVtHBfYypvOSx5p_jH-1" edge="1">
          <mxGeometry relative="1" as="geometry">
            <Array as="points">
              <mxPoint x="471" y="283" />
              <mxPoint x="150" y="283" />
            </Array>
          </mxGeometry>
        </mxCell>
        <mxCell id="SWWLhCR4T1oYjyVw-aaA-1" value="SID" style="rounded=0;whiteSpace=wrap;html=1;fillColor=#d5e8d4;strokeColor=#000000;" parent="1" vertex="1">
          <mxGeometry x="451" y="110" width="39" height="20" as="geometry" />
        </mxCell>
        <mxCell id="QEVxzovMEF0A_XPe_4EW-1" style="edgeStyle=orthogonalEdgeStyle;rounded=0;orthogonalLoop=1;jettySize=auto;html=1;" parent="1" source="LoFC58CjNfOfW3EVSdzE-1" edge="1">
          <mxGeometry relative="1" as="geometry">
            <mxPoint x="171" y="720" as="targetPoint" />
            <Array as="points">
              <mxPoint x="171" y="800" />
              <mxPoint x="100" y="800" />
              <mxPoint x="100" y="740" />
              <mxPoint x="171" y="740" />
            </Array>
          </mxGeometry>
        </mxCell>
        <mxCell id="LoFC58CjNfOfW3EVSdzE-1" value="IS_code" style="rounded=0;whiteSpace=wrap;html=1;fillColor=#d5e8d4;strokeColor=#000000;" parent="1" vertex="1">
          <mxGeometry x="141" y="770" width="60" height="17" as="geometry" />
        </mxCell>
        <mxCell id="QEVxzovMEF0A_XPe_4EW-2" style="edgeStyle=orthogonalEdgeStyle;rounded=0;orthogonalLoop=1;jettySize=auto;html=1;entryX=0.75;entryY=1;entryDx=0;entryDy=0;" parent="1" source="LoFC58CjNfOfW3EVSdzE-2" target="m-pAInZp5DkNOzlYMc72-1" edge="1">
          <mxGeometry relative="1" as="geometry">
            <Array as="points">
              <mxPoint x="236" y="810" />
              <mxPoint x="90" y="810" />
              <mxPoint x="90" y="360" />
              <mxPoint x="169" y="360" />
            </Array>
          </mxGeometry>
        </mxCell>
        <mxCell id="LoFC58CjNfOfW3EVSdzE-2" value="SID" style="rounded=0;whiteSpace=wrap;html=1;fillColor=#d5e8d4;strokeColor=#000000;" parent="1" vertex="1">
          <mxGeometry x="201" y="770" width="70" height="17" as="geometry" />
        </mxCell>
        <mxCell id="LoFC58CjNfOfW3EVSdzE-3" value="Interest" style="text;html=1;strokeColor=none;fillColor=none;align=center;verticalAlign=middle;whiteSpace=wrap;rounded=0;" parent="1" vertex="1">
          <mxGeometry x="140" y="750" width="71" height="13" as="geometry" />
        </mxCell>
        <mxCell id="oKXLxmgeRFyPwjW-4DzD-2" style="edgeStyle=orthogonalEdgeStyle;rounded=0;orthogonalLoop=1;jettySize=auto;html=1;entryX=0.75;entryY=1;entryDx=0;entryDy=0;" parent="1" source="oKXLxmgeRFyPwjW-4DzD-1" target="fSmVtHBfYypvOSx5p_jH-1" edge="1">
          <mxGeometry relative="1" as="geometry">
            <Array as="points">
              <mxPoint x="445" y="350" />
              <mxPoint x="480" y="350" />
              <mxPoint x="480" y="300" />
              <mxPoint x="170" y="300" />
            </Array>
          </mxGeometry>
        </mxCell>
        <mxCell id="oKXLxmgeRFyPwjW-4DzD-1" value="EID" style="rounded=0;whiteSpace=wrap;html=1;container=0;fillColor=#d5e8d4;strokeColor=#000000;" parent="1" vertex="1">
          <mxGeometry x="420" y="320" width="50" height="20" as="geometry" />
        </mxCell>
        <mxCell id="v6rrlkTF3PXp6JnNTouC-2" value="EID" style="rounded=0;whiteSpace=wrap;html=1;fillColor=#d5e8d4;strokeColor=#000000;" parent="1" vertex="1">
          <mxGeometry x="768" y="849" width="40" height="21" as="geometry" />
        </mxCell>
        <mxCell id="v6rrlkTF3PXp6JnNTouC-3" value="Contribution_rating" style="rounded=0;whiteSpace=wrap;html=1;" parent="1" vertex="1">
          <mxGeometry x="300" y="849" width="110" height="21" as="geometry" />
        </mxCell>
        <mxCell id="v6rrlkTF3PXp6JnNTouC-4" value="Methodology_rating" style="rounded=0;whiteSpace=wrap;html=1;" parent="1" vertex="1">
          <mxGeometry x="410" y="849" width="110" height="21" as="geometry" />
        </mxCell>
        <mxCell id="9FVGupk9IE5CEGYOyA5T-2" value="Type Setting" style="text;html=1;strokeColor=none;fillColor=none;align=center;verticalAlign=middle;whiteSpace=wrap;rounded=0;" parent="1" vertex="1">
          <mxGeometry x="140" y="460" width="70" height="15" as="geometry" />
        </mxCell>
        <mxCell id="9FVGupk9IE5CEGYOyA5T-3" value="Style" style="rounded=0;whiteSpace=wrap;html=1;fillColor=#ffe6cc;strokeColor=#000000;" parent="1" vertex="1">
          <mxGeometry x="137" y="478" width="49" height="22" as="geometry" />
        </mxCell>
        <mxCell id="9FVGupk9IE5CEGYOyA5T-4" value="Line Spacing" style="rounded=0;whiteSpace=wrap;html=1;" parent="1" vertex="1">
          <mxGeometry x="186" y="478" width="90" height="22" as="geometry" />
        </mxCell>
        <mxCell id="9FVGupk9IE5CEGYOyA5T-5" value="Size" style="rounded=0;whiteSpace=wrap;html=1;" parent="1" vertex="1">
          <mxGeometry x="276" y="478" width="49" height="22" as="geometry" />
        </mxCell>
        <mxCell id="AU2k_BFxjKhFWIFEfctB-1" value="Justification" style="rounded=0;whiteSpace=wrap;html=1;" parent="1" vertex="1">
          <mxGeometry x="325" y="478" width="80" height="22" as="geometry" />
        </mxCell>
      </root>
    </mxGraphModel>
  </diagram>
  <diagram id="ca_h7W2JgGYf8kDw0Wju" name="Page-4">
    <mxGraphModel dx="823" dy="484" grid="1" gridSize="10" guides="1" tooltips="1" connect="1" arrows="1" fold="1" page="1" pageScale="1" pageWidth="850" pageHeight="1100" math="0" shadow="0">
      <root>
        <mxCell id="0" />
        <mxCell id="1" parent="0" />
        <mxCell id="gYvRkrw6xMVku1Drrn4w-1" value="Authors" style="text;html=1;strokeColor=none;fillColor=none;align=center;verticalAlign=middle;whiteSpace=wrap;rounded=0;" parent="1" vertex="1">
          <mxGeometry x="161" y="330" width="60" height="20" as="geometry" />
        </mxCell>
        <mxCell id="gYvRkrw6xMVku1Drrn4w-2" value="Name" style="rounded=0;whiteSpace=wrap;html=1;" parent="1" vertex="1">
          <mxGeometry x="201" y="350" width="51" height="18" as="geometry" />
        </mxCell>
        <mxCell id="gYvRkrw6xMVku1Drrn4w-3" value="Mailing address" style="rounded=0;whiteSpace=wrap;html=1;fillColor=#ffe6cc;strokeColor=#000000;" parent="1" vertex="1">
          <mxGeometry x="251" y="350" width="100" height="18" as="geometry" />
        </mxCell>
        <mxCell id="gYvRkrw6xMVku1Drrn4w-4" value="E-mail&amp;nbsp;" style="rounded=0;whiteSpace=wrap;html=1;fillColor=#ffe6cc;strokeColor=#000000;" parent="1" vertex="1">
          <mxGeometry x="352" y="350" width="60" height="18" as="geometry" />
        </mxCell>
        <mxCell id="gYvRkrw6xMVku1Drrn4w-5" value="Affiliation" style="rounded=0;whiteSpace=wrap;html=1;" parent="1" vertex="1">
          <mxGeometry x="412" y="350" width="60" height="18" as="geometry" />
        </mxCell>
        <mxCell id="XrBIdswgxrJwah77A4LD-3" style="edgeStyle=orthogonalEdgeStyle;rounded=0;orthogonalLoop=1;jettySize=auto;html=1;entryX=0.75;entryY=1;entryDx=0;entryDy=0;" parent="1" source="gYvRkrw6xMVku1Drrn4w-6" target="SMCwk2Zt9YU5JAhoq-FF-2" edge="1">
          <mxGeometry relative="1" as="geometry">
            <Array as="points">
              <mxPoint x="100" y="359" />
              <mxPoint x="100" y="200" />
              <mxPoint x="190" y="200" />
            </Array>
          </mxGeometry>
        </mxCell>
        <mxCell id="gYvRkrw6xMVku1Drrn4w-6" value="SID" style="rounded=0;whiteSpace=wrap;html=1;fillColor=#ffe6cc;strokeColor=#000000;" parent="1" vertex="1">
          <mxGeometry x="150" y="350" width="51" height="18" as="geometry" />
        </mxCell>
        <mxCell id="SMCwk2Zt9YU5JAhoq-FF-1" value="Name" style="rounded=0;whiteSpace=wrap;html=1;" parent="1" vertex="1">
          <mxGeometry x="203" y="140" width="51" height="18" as="geometry" />
        </mxCell>
        <mxCell id="SMCwk2Zt9YU5JAhoq-FF-2" value="SID" style="rounded=0;whiteSpace=wrap;html=1;fillColor=#ffe6cc;strokeColor=#000000;" parent="1" vertex="1">
          <mxGeometry x="152" y="140" width="51" height="18" as="geometry" />
        </mxCell>
        <mxCell id="_11M0IQEp6dZr1xYKyWi-1" value="Journal Staff" style="text;html=1;strokeColor=none;fillColor=none;align=center;verticalAlign=middle;whiteSpace=wrap;rounded=0;" parent="1" vertex="1">
          <mxGeometry x="153.5" y="110" width="76.5" height="20" as="geometry" />
        </mxCell>
        <mxCell id="4y_uHliT_85h3YW4vKAE-1" value="Editor" style="text;html=1;strokeColor=none;fillColor=none;align=center;verticalAlign=middle;whiteSpace=wrap;rounded=0;" parent="1" vertex="1">
          <mxGeometry x="148" y="202" width="40" height="20" as="geometry" />
        </mxCell>
        <mxCell id="4y_uHliT_85h3YW4vKAE-2" value="Years of Experience" style="rounded=0;whiteSpace=wrap;html=1;" parent="1" vertex="1">
          <mxGeometry x="308" y="221" width="120" height="20" as="geometry" />
        </mxCell>
        <mxCell id="4y_uHliT_85h3YW4vKAE-3" value="Name" style="rounded=0;whiteSpace=wrap;html=1;" parent="1" vertex="1">
          <mxGeometry x="188" y="221" width="50" height="20" as="geometry" />
        </mxCell>
        <mxCell id="4y_uHliT_85h3YW4vKAE-4" value="Phone No" style="rounded=0;whiteSpace=wrap;html=1;fillColor=#ffe6cc;strokeColor=#000000;" parent="1" vertex="1">
          <mxGeometry x="238" y="221" width="70" height="20" as="geometry" />
        </mxCell>
        <mxCell id="4y_uHliT_85h3YW4vKAE-6" style="edgeStyle=orthogonalEdgeStyle;rounded=0;orthogonalLoop=1;jettySize=auto;html=1;" parent="1" source="4y_uHliT_85h3YW4vKAE-5" edge="1">
          <mxGeometry relative="1" as="geometry">
            <mxPoint x="180" y="160" as="targetPoint" />
            <Array as="points">
              <mxPoint x="120" y="231" />
              <mxPoint x="120" y="191" />
              <mxPoint x="180" y="191" />
            </Array>
          </mxGeometry>
        </mxCell>
        <mxCell id="4y_uHliT_85h3YW4vKAE-5" value="SID" style="rounded=0;whiteSpace=wrap;html=1;fillColor=#ffe6cc;strokeColor=#000000;" parent="1" vertex="1">
          <mxGeometry x="148" y="221" width="40" height="20" as="geometry" />
        </mxCell>
        <mxCell id="u26f34Nl5VMdylcCVybD-1" value="User" style="text;html=1;strokeColor=none;fillColor=none;align=center;verticalAlign=middle;whiteSpace=wrap;rounded=0;" parent="1" vertex="1">
          <mxGeometry x="141" y="260" width="60" height="20" as="geometry" />
        </mxCell>
        <mxCell id="u26f34Nl5VMdylcCVybD-2" value="Affiliation" style="rounded=0;whiteSpace=wrap;html=1;" parent="1" vertex="1">
          <mxGeometry x="200" y="280" width="60" height="18" as="geometry" />
        </mxCell>
        <mxCell id="XrBIdswgxrJwah77A4LD-2" style="edgeStyle=orthogonalEdgeStyle;rounded=0;orthogonalLoop=1;jettySize=auto;html=1;entryX=0.25;entryY=1;entryDx=0;entryDy=0;" parent="1" source="u26f34Nl5VMdylcCVybD-3" target="SMCwk2Zt9YU5JAhoq-FF-2" edge="1">
          <mxGeometry relative="1" as="geometry">
            <Array as="points">
              <mxPoint x="110" y="289" />
              <mxPoint x="110" y="180" />
              <mxPoint x="165" y="180" />
            </Array>
          </mxGeometry>
        </mxCell>
        <mxCell id="u26f34Nl5VMdylcCVybD-3" value="SID" style="rounded=0;whiteSpace=wrap;html=1;fillColor=#d5e8d4;strokeColor=#82b366;" parent="1" vertex="1">
          <mxGeometry x="149" y="280" width="51" height="18" as="geometry" />
        </mxCell>
        <mxCell id="XrBIdswgxrJwah77A4LD-1" value="Email" style="rounded=0;whiteSpace=wrap;html=1;" parent="1" vertex="1">
          <mxGeometry x="260" y="280" width="60" height="18" as="geometry" />
        </mxCell>
        <mxCell id="5lFckJ1FlUpJ8zjCF-Ry-1" value="Reviewer" style="text;html=1;strokeColor=none;fillColor=none;align=center;verticalAlign=middle;whiteSpace=wrap;rounded=0;" parent="1" vertex="1">
          <mxGeometry x="160" y="388" width="60" height="20" as="geometry" />
        </mxCell>
        <mxCell id="5lFckJ1FlUpJ8zjCF-Ry-2" value="Phone No" style="rounded=0;whiteSpace=wrap;html=1;container=0;" parent="1" vertex="1">
          <mxGeometry x="410" y="408" width="70" height="20" as="geometry" />
        </mxCell>
        <mxCell id="5lFckJ1FlUpJ8zjCF-Ry-3" value="Rev_No" style="rounded=0;whiteSpace=wrap;html=1;fillColor=#ffe6cc;strokeColor=#000000;container=0;" parent="1" vertex="1">
          <mxGeometry x="160" y="408" width="60" height="20" as="geometry" />
        </mxCell>
        <mxCell id="5lFckJ1FlUpJ8zjCF-Ry-4" value="Name" style="rounded=0;whiteSpace=wrap;html=1;container=0;" parent="1" vertex="1">
          <mxGeometry x="220" y="408" width="70" height="20" as="geometry" />
        </mxCell>
        <mxCell id="5lFckJ1FlUpJ8zjCF-Ry-5" value="email&amp;nbsp;" style="rounded=0;whiteSpace=wrap;html=1;container=0;fillColor=#ffe6cc;strokeColor=#000000;" parent="1" vertex="1">
          <mxGeometry x="290" y="408" width="50" height="20" as="geometry" />
        </mxCell>
        <mxCell id="5lFckJ1FlUpJ8zjCF-Ry-6" value="affiliation" style="rounded=0;whiteSpace=wrap;html=1;container=0;" parent="1" vertex="1">
          <mxGeometry x="340" y="408" width="70" height="20" as="geometry" />
        </mxCell>
        <mxCell id="5lFckJ1FlUpJ8zjCF-Ry-7" value="SID" style="rounded=0;whiteSpace=wrap;html=1;fillColor=#ffe6cc;strokeColor=#000000;container=0;" parent="1" vertex="1">
          <mxGeometry x="120" y="408" width="40" height="20" as="geometry" />
        </mxCell>
        <mxCell id="qJfXZPpX8IX-8R0_E_m9-1" value="Feedback" style="text;html=1;strokeColor=none;fillColor=none;align=center;verticalAlign=middle;whiteSpace=wrap;rounded=0;" parent="1" vertex="1">
          <mxGeometry x="140" y="490" width="60" height="19" as="geometry" />
        </mxCell>
        <mxCell id="qJfXZPpX8IX-8R0_E_m9-2" value="Recommendation" style="rounded=0;whiteSpace=wrap;html=1;" parent="1" vertex="1">
          <mxGeometry x="206" y="509" width="110" height="21" as="geometry" />
        </mxCell>
        <mxCell id="qJfXZPpX8IX-8R0_E_m9-3" value="Rev_No" style="rounded=0;whiteSpace=wrap;html=1;fillColor=#d5e8d4;strokeColor=#000000;" parent="1" vertex="1">
          <mxGeometry x="744" y="509" width="50" height="21" as="geometry" />
        </mxCell>
        <mxCell id="qJfXZPpX8IX-8R0_E_m9-4" value="Contribution rating" style="rounded=0;whiteSpace=wrap;html=1;" parent="1" vertex="1">
          <mxGeometry x="316" y="509" width="110" height="21" as="geometry" />
        </mxCell>
        <mxCell id="qJfXZPpX8IX-8R0_E_m9-5" value="Methodology rating" style="rounded=0;whiteSpace=wrap;html=1;" parent="1" vertex="1">
          <mxGeometry x="426" y="509" width="110" height="21" as="geometry" />
        </mxCell>
        <mxCell id="qJfXZPpX8IX-8R0_E_m9-6" value="Clarity rating" style="rounded=0;whiteSpace=wrap;html=1;" parent="1" vertex="1">
          <mxGeometry x="536" y="509" width="80" height="21" as="geometry" />
        </mxCell>
        <mxCell id="qJfXZPpX8IX-8R0_E_m9-7" value="Appropriateness rating" style="rounded=0;whiteSpace=wrap;html=1;" parent="1" vertex="1">
          <mxGeometry x="616" y="509" width="130" height="21" as="geometry" />
        </mxCell>
        <mxCell id="qJfXZPpX8IX-8R0_E_m9-8" value="ID" style="rounded=0;whiteSpace=wrap;html=1;fillColor=#ffe6cc;strokeColor=#000000;" parent="1" vertex="1">
          <mxGeometry x="140" y="509" width="30" height="21" as="geometry" />
        </mxCell>
        <mxCell id="qJfXZPpX8IX-8R0_E_m9-9" value="Date" style="rounded=0;whiteSpace=wrap;html=1;" parent="1" vertex="1">
          <mxGeometry x="170" y="509" width="36" height="21" as="geometry" />
        </mxCell>
        <mxCell id="qJfXZPpX8IX-8R0_E_m9-10" value="PID" style="rounded=0;whiteSpace=wrap;html=1;fillColor=#ffe6cc;strokeColor=#000000;" parent="1" vertex="1">
          <mxGeometry x="110" y="509" width="30" height="21" as="geometry" />
        </mxCell>
      </root>
    </mxGraphModel>
  </diagram>
</mxfile>
